<?xml version="1.0" encoding="UTF-8" standalone="no"?>
<!-- Created with Inkscape (http://www.inkscape.org/) -->

<svg
   xmlns:dc="http://purl.org/dc/elements/1.1/"
   xmlns:cc="http://creativecommons.org/ns#"
   xmlns:rdf="http://www.w3.org/1999/02/22-rdf-syntax-ns#"
   xmlns:svg="http://www.w3.org/2000/svg"
   xmlns="http://www.w3.org/2000/svg"
   xmlns:sodipodi="http://sodipodi.sourceforge.net/DTD/sodipodi-0.dtd"
   xmlns:inkscape="http://www.inkscape.org/namespaces/inkscape"
   width="210mm"
   height="297mm"
   viewBox="0 0 744.09448819 1052.3622047"
   id="svg2"
   version="1.1"
   inkscape:version="0.91 r13725"
   sodipodi:docname="Kerala Map.svg">
  <defs
     id="defs4" />
  <sodipodi:namedview
     id="base"
     pagecolor="#ffffff"
     bordercolor="#666666"
     borderopacity="1.0"
     inkscape:pageopacity="0.0"
     inkscape:pageshadow="2"
     inkscape:zoom="1"
     inkscape:cx="462.69339"
     inkscape:cy="551.49623"
     inkscape:document-units="px"
     inkscape:current-layer="layer1"
     showgrid="false"
     inkscape:window-width="1366"
     inkscape:window-height="705"
     inkscape:window-x="-8"
     inkscape:window-y="-8"
     inkscape:window-maximized="1" />
  <metadata
     id="metadata7">
    <rdf:RDF>
      <cc:Work
         rdf:about="">
        <dc:format>image/svg+xml</dc:format>
        <dc:type
           rdf:resource="http://purl.org/dc/dcmitype/StillImage" />
        <dc:title></dc:title>
      </cc:Work>
    </rdf:RDF>
  </metadata>
  <g
     inkscape:label="Layer 1"
     inkscape:groupmode="layer"
     id="layer1">
    <path
       style="fill:#000000"
       d="m 530.34846,923.43986 c 0.20967,-1.28988 0.61099,-2.71699 0.89182,-3.17145 0.73718,-1.19279 4.74434,-1.01499 7.57786,0.33624 4.9777,2.37368 6.3549,-2.16095 2.37229,-7.81112 -2.21525,-3.14278 -2.40957,-6.26022 -0.39022,-6.26022 0.52284,0 1.48438,-0.20484 2.13677,-0.45514 0.80869,-0.31036 1.02982,-0.20226 0.69489,0.33971 -0.74065,1.19835 -0.0268,0.95363 1.03443,-0.35473 0.66606,-0.82107 0.68525,-1.00091 0.0671,-0.62941 -0.67265,0.40439 -0.76508,-0.13384 -0.41518,-2.41736 0.66368,-4.33142 1.82487,-7.48922 2.97903,-8.10144 0.56051,-0.29725 1.93633,-0.959 3.05737,-1.47046 1.20281,-0.54877 1.92707,-1.32908 1.76698,-1.90373 -0.14919,-0.53552 -0.41175,-1.80467 -0.58347,-2.82026 -0.17171,-1.01559 -0.73754,-2.19955 -1.25741,-2.63104 -1.45247,-1.20543 -1.1825,-4.51976 0.43884,-5.38751 1.1049,-0.5913 2.12419,-0.3906 5.05356,0.99521 2.01821,0.95479 3.98631,1.73598 4.37353,1.73598 1.29337,0 2.95231,-4.3088 3.29299,-8.55298 0.33354,-4.15525 0.30829,-4.22937 -2.46737,-7.24061 -1.54239,-1.67327 -2.80435,-3.51728 -2.80435,-4.09777 0,-0.58043 -0.89916,-1.90407 -1.99814,-2.94134 -1.09897,-1.03719 -1.85833,-2.1121 -1.68745,-2.38855 0.17086,-0.27653 -0.0473,-0.72392 -0.48481,-0.99433 -0.4968,-0.30703 -0.61346,-0.1971 -0.31069,0.29276 0.26663,0.43143 0.17202,0.78439 -0.21024,0.78439 -1.12406,0 -4.13978,-4.92123 -4.15601,-6.78201 -0.008,-0.94093 -0.61969,-3.04345 -1.35884,-4.67242 -1.56227,-3.44295 -1.61633,-3.74128 -0.55952,-3.08816 0.48989,0.30275 0.59981,0.1861 0.29276,-0.31069 -0.27039,-0.43755 -0.7428,-0.64022 -1.04978,-0.45053 -0.30699,0.18977 -1.08735,-0.46268 -1.73414,-1.4498 -0.87241,-1.33153 -1.07851,-2.61793 -0.79835,-4.98339 0.50443,-4.25913 -0.71725,-6.14941 -7.99275,-12.3673 -7.11007,-6.07657 -11.78695,-8.69898 -15.51389,-8.69898 -4.09608,0 -5.23689,1.38506 -5.263,6.38992 -0.0123,2.36104 -0.40956,4.6521 -0.92417,5.33002 -1.28216,1.68904 -4.33045,1.47162 -6.90559,-0.4925 l -2.20458,-1.68156 -1.72607,2.263 c -1.55914,2.04416 -2.16537,2.30805 -6.26816,2.72834 -5.56597,0.5703 -6.63568,-0.16755 -8.19839,-5.65452 -0.5932,-2.08289 -1.31407,-4.04117 -1.60192,-4.35167 -0.28785,-0.31056 -1.77051,0.0716 -3.29479,0.84927 -1.52429,0.7776 -3.41862,1.41387 -4.20961,1.41387 -1.80899,0 -5.41014,-3.53113 -5.41014,-5.30496 0,-0.73309 -0.74115,-1.81852 -1.64701,-2.41206 -0.90586,-0.59361 -1.84367,-1.69882 -2.08403,-2.45616 -0.36113,-1.13775 -1.01905,-1.37691 -3.78833,-1.37691 -4.06698,0 -4.36012,1.04956 -1.27463,4.56378 3.74535,4.26572 1.5847,6.95764 -5.59938,6.97632 -3.68463,0.01 -7.25388,0.87971 -8.01355,1.9536 -0.8679,1.22696 -4.76692,3.49173 -6.01135,3.49173 -1.54377,0 -5.24816,-3.40592 -5.88429,-5.41013 -0.24162,-0.76129 -0.81355,-1.16262 -1.3587,-0.95343 -0.55198,0.21178 -0.76604,0.82984 -0.51743,1.49404 0.38291,1.02293 0.29642,1.03394 -0.89217,0.1136 -1.20772,-0.93515 -1.24211,-0.92448 -0.41725,0.1295 0.49443,0.63172 1.33521,0.98114 1.8684,0.77657 0.5727,-0.21979 0.96945,0.0428 0.96945,0.64164 0,0.55753 0.76435,1.51449 1.69855,2.12658 0.93419,0.61215 1.69854,1.44906 1.69854,1.8599 0,0.47233 -0.43717,0.40412 -1.18898,-0.18555 -1.07595,-0.84377 -1.10092,-0.82012 -0.26272,0.24908 0.50944,0.64979 1.15055,1.04283 1.42471,0.87339 0.84849,-0.52438 7.82625,8.1265 13.13889,16.28936 0.97281,1.49472 3.45223,5.15358 5.50981,8.13086 2.6821,3.88083 3.50887,5.57169 2.92079,5.97323 -0.57301,0.39121 -0.49716,0.50032 0.25164,0.36186 0.58956,-0.10898 2.19468,0.78615 3.56694,1.98912 2.31078,2.02589 3.38073,3.5359 1.82338,2.57343 -0.39253,-0.24262 -0.49441,0.0469 -0.24515,0.69627 0.34132,0.88949 0.54117,0.93046 1.00093,0.20512 0.51711,-0.81571 0.87259,-0.3283 0.68389,0.93773 -0.0397,0.2668 0.30619,0.34548 0.76881,0.17488 0.47545,-0.17536 1.61423,1.0906 2.61945,2.91198 0.97808,1.77219 3.82661,5.77647 6.33006,8.89839 2.6941,3.35965 4.39771,6.07753 4.17435,6.65958 -0.20756,0.54089 -0.0954,0.80919 0.24928,0.59612 0.34466,-0.21299 3.42708,3.28709 6.84983,7.77804 3.42275,4.49094 6.60585,8.1653 7.07356,8.1653 1.23495,0 2.91997,2.08391 3.47143,4.29324 0.28811,1.15426 1.5145,2.60115 3.08653,3.64147 1.43466,0.94942 3.34878,2.69681 4.25362,3.88314 0.90483,1.18626 3.11909,2.91076 4.92058,3.83212 1.80149,0.92135 5.42863,3.26704 8.06032,5.21275 2.63169,1.94565 5.08952,3.4492 5.46185,3.34124 0.37233,-0.10796 0.84851,-1.25162 1.05817,-2.54149 z"
       id="path5144"
       inkscape:connector-curvature="0" />
    <g
       transform="translate(-49.525374,-48.86554)"
       id="g7967">
      <path
         inkscape:connector-curvature="0"
         id="path5104"
         d="m 598.14545,881.04609 c 0.44537,-0.5366 1.0397,-1.83599 1.32074,-2.88752 0.365,-1.36556 1.04236,-2.0089 2.37085,-2.25152 1.59724,-0.29174 2.0714,-0.96953 3.35803,-4.80028 0.82399,-2.45338 2.10536,-5.32188 2.84749,-6.3745 3.23448,-4.58776 3.42042,-5.40653 2.00066,-8.80959 -0.38336,-0.91892 -0.30932,-1.1563 0.25233,-0.80919 1.2898,0.79709 0.91037,0.0435 -0.68074,-1.35204 -0.8116,-0.71189 -1.25216,-0.91212 -0.97903,-0.44502 0.97494,1.66736 -0.34098,0.80803 -2.49188,-1.62727 -1.20305,-1.36209 -2.42821,-3.36026 -2.7226,-4.4404 -0.29439,-1.08007 -2.52293,-4.011 -4.95232,-6.51316 -2.42939,-2.50223 -4.58284,-5.20991 -4.78545,-6.01719 -0.20261,-0.80722 -1.10788,-2.92842 -2.0117,-4.71373 -2.59744,-5.13055 -2.11108,-7.11934 2.57043,-10.51058 2.87102,-2.07976 4.38442,-2.60747 3.53466,-1.23253 -0.29356,0.47498 -0.18708,0.6004 0.26994,0.31797 0.41509,-0.25655 0.59763,-0.87584 0.40564,-1.37616 -0.192,-0.50033 0.20352,-1.16534 0.87894,-1.4778 0.85272,-0.39447 -0.32929,-0.71502 -3.8676,-1.04896 -8.45643,-0.79811 -13.46267,-1.85807 -16.41781,-3.47617 -7.21018,-3.94795 -11.94346,-6.10164 -15.37382,-6.99514 -5.483,-1.42813 -14.44292,-5.00064 -16.39731,-6.53796 -1.62232,-1.27615 -1.72053,-1.28097 -2.13739,-0.10585 -0.33925,0.95634 0.25011,1.61144 2.63631,2.93025 4.00846,2.21545 5.01155,3.81113 3.2282,5.13545 -1.69393,1.25787 -5.9323,1.23817 -10.16938,-0.0469 -3.82312,-1.16011 -7.87517,-1.33105 -7.87517,-0.33265 0,0.37368 -0.45477,0.67942 -1.01061,0.67942 -0.55583,0 -1.76731,1.1987 -2.69218,2.66379 -2.56568,4.06427 -5.68028,4.39909 -9.12893,0.98128 -1.74396,-1.72837 -4.68193,-2.09919 -6.9623,-0.87875 -1.28363,0.68695 -1.29795,0.82345 -0.2537,2.41716 0.6087,0.92903 1.01169,2.51221 0.89553,3.51829 -0.19515,1.69019 -0.47674,1.84462 -3.70559,2.03207 -1.97199,0.11441 -5.86931,-0.40357 -8.94561,-1.18898 -2.99819,-0.7655 -6.14058,-1.39185 -6.98309,-1.39185 -3.87969,0 -5.53511,-6.03955 -2.65797,-9.69726 1.24669,-1.58487 2.0033,-7.28817 0.96687,-7.28817 -0.21559,0 -1.28769,0.89574 -2.38245,1.99049 -1.09477,1.09474 -3.59358,2.76108 -5.55293,3.70296 -3.42956,1.64867 -12.61917,3.77579 -17.42706,4.03383 -2.43482,0.13072 -2.65923,-0.17624 -3.75115,-5.13089 -0.40665,-1.84516 -0.41869,-1.84883 -1.74069,-0.52682 -0.73217,0.73214 -2.08724,1.52094 -3.01127,1.7529 -2.90743,0.72969 -4.77111,4.74688 -2.91635,6.28617 0.48042,0.39868 1.89366,3.13823 3.14054,6.08785 1.99741,4.725 2.44932,5.32805 3.79953,5.06994 2.10944,-0.40323 3.73653,2.10497 3.73653,5.75997 0,3.34789 -0.86233,3.68706 -3.69992,1.45497 l -1.84491,-1.45117 0.46683,5.69752 c 0.25675,3.13368 0.89287,6.58532 1.41358,7.67035 0.52071,1.08503 0.94676,2.70823 0.94676,3.60709 0,0.91647 0.2984,1.44981 0.67941,1.21433 0.37368,-0.23094 0.67942,-2.4809 0.67942,-4.99983 0,-4.95921 0.66131,-6.21056 3.28215,-6.21056 1.48642,0 1.61448,0.22081 1.28076,2.20811 -0.20394,1.21446 -0.57484,2.81958 -0.82422,3.56694 -0.69707,2.089 3.43322,-4.88895 5.83118,-9.85155 3.42726,-7.09277 8.30637,-11.06696 10.67676,-8.69654 1.12463,1.12464 1.02525,3.2612 -0.1517,3.2612 -1.72809,0 -5.14776,3.42515 -5.14776,5.15603 0,1.00316 0.39502,1.63815 1.01913,1.63815 0.56052,0 1.01913,0.34317 1.01913,0.76257 0,0.53987 0.28682,0.52458 0.98173,-0.0523 0.53994,-0.44815 1.68646,-0.71488 2.54781,-0.59279 1.62622,0.23052 1.84333,1.34946 0.867,4.46839 -0.39422,1.25936 -0.22142,1.52869 0.98087,1.52869 2.69201,0 2.40243,1.91894 -0.71493,4.73777 -3.58035,3.23743 -4.80164,3.36461 -6.70074,0.69756 -2.07279,-2.91096 -3.41916,-2.70075 -2.90723,0.45392 0.35267,2.17325 0.15161,2.69905 -1.57141,4.10932 l -1.97582,1.61722 2.88615,-1.12519 c 3.44446,-1.34286 4.92715,-0.93983 4.92715,1.33934 0,2.26898 -2.37503,3.79665 -5.90258,3.79665 -2.23402,0 -3.40485,-0.45861 -5.204,-2.03825 -2.98077,-2.61712 -4.8439,-2.74179 -4.22673,-0.28278 0.3318,1.32201 0.22417,1.63061 -0.43591,1.24993 -0.51195,-0.29534 -0.64102,-0.24833 -0.31032,0.11292 0.3114,0.34018 0.8974,0.61847 1.30222,0.61847 0.40481,0 0.87761,0.4247 1.05065,0.94385 0.20972,0.62914 0.0237,0.76407 -0.55793,0.40459 -0.57639,-0.35622 -0.70567,-0.26925 -0.3809,0.25621 0.2704,0.43754 0.73538,0.64483 1.0333,0.46071 0.29792,-0.18412 1.06112,0.23922 1.69601,0.94079 0.63489,0.7015 2.22999,1.47732 3.54467,1.72395 1.6142,0.30282 2.27648,0.74512 2.03966,1.36223 -0.19287,0.50264 0.31662,1.47767 1.1322,2.16666 l 1.48286,1.25285 -1.29428,-1.52869 c -2.52941,-2.98753 0.14748,-1.46564 4.60273,2.61684 2.62258,2.4031 4.92146,3.99301 5.46953,3.78266 0.51999,-0.19955 1.15597,-1.32133 1.41328,-2.49285 0.65283,-2.97231 2.17549,-3.32228 4.12159,-0.94731 2.43052,2.96613 2.68533,4.30927 1.0366,5.46414 -1.52237,1.06628 -1.24093,2.36077 1.00065,4.60231 1.55579,1.55579 2.6649,1.33648 5.40413,-1.06859 2.18238,-1.91616 3.1113,-2.21239 8.85606,-2.82413 3.52987,-0.37593 6.41794,-0.97735 6.41794,-1.33655 0,-0.35921 -0.91721,-1.69773 -2.03825,-2.97456 -2.13215,-2.42837 -2.60523,-4.83249 -1.22295,-6.21476 0.47343,-0.47342 2.74256,-0.8153 5.41144,-0.8153 4.05941,0 4.69086,0.17698 5.40735,1.51577 0.44617,0.83372 1.49265,2.05178 2.32551,2.70694 0.83286,0.65509 1.7261,2.03506 1.98498,3.06648 0.98594,3.92832 2.49736,4.39467 7.25126,2.23759 4.4373,-2.01352 4.98621,-1.82912 6.25559,2.1013 0.61729,1.91134 1.12234,3.83062 1.12234,4.26504 0,0.43449 0.44769,1.42909 0.99486,2.21028 0.92767,1.32446 1.25223,1.36883 4.80583,0.657 2.56592,-0.51405 4.05775,-1.2061 4.56632,-2.11849 0.97204,-1.74372 2.28109,-3.05357 3.05177,-3.05357 0.3338,0 1.80789,0.90872 3.27576,2.01936 3.94093,2.98183 4.36739,2.75252 4.36739,-2.34834 0,-3.90868 0.22373,-4.6557 1.98395,-6.62431 1.82274,-2.03853 2.30579,-2.21538 5.9449,-2.17645 5.02318,0.0537 7.87483,1.50885 15.66797,7.99511 6.38122,5.31107 9.3356,8.44495 10.03316,10.6428 0.51078,1.60933 1.22994,1.72803 2.34307,0.38679 z"
         style="fill:#000000" />
      <path
         inkscape:connector-curvature="0"
         id="path5070"
         d="m 474.76873,842.61561 c -0.24674,-0.56052 -0.47837,-1.7677 -0.51473,-2.68261 -0.0525,-1.3199 0.39562,-1.79787 2.16986,-2.31436 2.01811,-0.5875 2.45321,-0.44033 4.46571,1.51027 2.17557,2.10864 2.25815,2.12977 3.39855,0.86959 1.08019,-1.1936 1.08356,-1.32419 0.0444,-1.723 -0.80456,-0.30873 -1.03971,-1.00867 -0.82662,-2.46051 0.27177,-1.85169 0.1995,-1.94008 -0.8268,-1.01131 -1.41311,1.27886 -3.39557,1.32214 -3.39557,0.0741 0,-0.51901 -0.53504,-0.90118 -1.18898,-0.84927 -1.25319,0.0995 -1.46224,-1.42664 -0.5455,-3.98213 0.53025,-1.47814 -2.57061,3.5225 -5.34227,8.61528 -0.95185,1.74895 -2.29144,3.58338 -2.97687,4.0765 -1.22141,0.87869 -2.71231,3.68625 -1.58879,2.99188 0.31436,-0.19431 1.13639,0.0598 1.82675,0.5646 1.09641,0.80171 1.53946,0.69151 3.50235,-0.87108 1.48013,-1.17825 2.09402,-2.1367 1.79852,-2.80797 z"
         style="fill:#000000" />
    </g>
    <path
       style="fill:#000000"
       d="m 461.72342,765.65524 c 0,-0.19995 -0.48219,-1.0995 -1.07153,-1.99898 -1.61145,-2.45936 -0.98828,-4.57785 1.7831,-6.06169 2.98157,-1.59643 6.26243,-1.12987 9.0758,1.29062 2.59242,2.23032 4.21427,2.14546 5.47181,-0.28638 1.16776,-2.25818 4.05343,-4.51506 6.58566,-5.15059 0.94554,-0.23732 4.24133,0.18072 7.324,0.92897 6.77383,1.64419 9.15341,1.20365 4.74527,-0.87849 -2.51463,-1.18776 -3.03474,-1.76913 -3.21119,-3.58929 -0.25814,-2.66277 0.87867,-4.95893 2.44256,-4.93359 0.64079,0.0102 2.36606,0.92761 3.83392,2.03825 1.46787,1.11065 3.03412,2.01937 3.48058,2.01937 0.44645,0 2.25771,0.6396 4.02502,1.4214 1.76731,0.78174 5.25387,1.98682 7.74791,2.67799 4.75047,1.31644 11.44398,4.28434 16.0485,7.11595 1.7191,1.05717 3.74817,1.6753 5.52222,1.68237 1.5425,0.007 3.90215,0.46982 5.24366,1.03034 1.34151,0.56052 3.9394,1.01912 5.77309,1.01912 3.13176,0 3.35777,-0.11896 3.72621,-1.96114 0.23583,-1.17919 1.81694,-3.27873 3.96531,-5.26548 7.43082,-6.87196 7.36235,-6.7833 7.36328,-9.5367 6.8e-4,-2.5521 2.63562,-14.45474 3.9803,-17.98119 0.58269,-1.52814 0.43057,-2.02962 -1.03054,-3.39708 -1.41731,-1.32649 -2.43789,-1.60431 -5.89343,-1.60431 l -4.17929,0 -0.99072,-2.84879 c -0.84053,-2.41689 -0.85091,-3.10997 -0.0685,-4.57194 0.50723,-0.94778 0.9504,-3.72083 0.98482,-6.16245 0.0573,-4.06712 0.23066,-4.57322 2.06777,-6.03804 l 2.00518,-1.59888 -1.83532,-2.18113 c -1.00943,-1.19965 -1.83533,-2.91823 -1.83533,-3.81907 0,-1.16833 -0.76881,-2.12318 -2.68184,-3.33084 -1.9112,-1.20651 -2.87925,-2.40792 -3.36882,-4.181 -0.98197,-3.55641 -3.21795,-5.69317 -5.95756,-5.69317 -1.34908,0 -2.80377,-0.54422 -3.61019,-1.35069 -1.34792,-1.34789 -1.3613,-1.34361 -6.62431,2.1331 -9.4217,6.22394 -8.67075,5.40388 -8.67075,9.46836 0,3.0179 -0.21841,3.68645 -1.27263,3.89598 -0.69994,0.13908 -2.10841,-0.36505 -3.12993,-1.12029 -1.40848,-1.04134 -2.51137,-1.28546 -4.56401,-1.01016 -2.37627,0.31878 -2.89089,0.12896 -4.21529,-1.55478 -0.82973,-1.05479 -1.37187,-2.4406 -1.20478,-3.07959 0.25818,-0.98726 -0.37329,-1.21167 -4.20487,-1.49438 -2.47977,-0.18297 -5.27302,-0.43598 -6.20721,-0.56228 -1.61811,-0.21878 -1.71464,-0.0367 -2.03826,3.84686 -0.30404,3.6484 -0.50791,4.10028 -1.9415,4.30322 -1.21973,0.17257 -2.54615,-0.75354 -5.56085,-3.8826 -4.61844,-4.79369 -6.55455,-5.53025 -9.85895,-3.75072 -2.05188,1.105 -2.59371,1.14631 -4.54384,0.3463 -3.66493,-1.50355 -5.61,-1.64276 -6.58236,-0.47118 -0.4916,0.59239 -1.42046,1.07702 -2.06416,1.07702 -0.64368,0 -1.72371,0.61147 -2.40006,1.35883 -1.76052,1.94538 -2.75503,1.7107 -5.88561,-1.38873 -2.45544,-2.43102 -2.73128,-3.01817 -2.39416,-5.09563 0.20958,-1.29143 0.2466,-2.34806 0.0823,-2.34806 -0.16432,0 -1.40363,1.22295 -2.75401,2.71767 -3.52997,3.90726 -5.23447,3.69827 -6.92617,-0.84927 l -1.32693,-3.56694 -3.28412,-0.21307 c -2.25276,-0.14621 -3.50551,0.0896 -3.98909,0.75096 -0.38773,0.53028 -2.39841,2.04742 -4.46817,3.3714 -4.767,3.04943 -5.2529,3.66274 -5.52207,6.97001 l -0.22048,2.70904 -3.71287,0.14308 c -2.60657,0.10049 -4.07009,-0.18018 -4.91174,-0.94187 -1.10606,-1.00099 -1.29524,-0.96593 -2.44395,0.45269 -0.70374,0.86904 -2.35401,1.72165 -3.79555,1.96094 -1.78656,0.29663 -2.8878,0.98033 -3.67672,2.2827 -1.0521,1.73693 -1.04915,1.98988 0.0447,3.84163 0.64404,1.09026 1.17098,2.89887 1.17098,4.01916 0,1.67368 -0.38141,2.16972 -2.13963,2.78269 -1.17681,0.41023 -2.66806,0.74586 -3.3139,0.74586 -0.64584,0 -1.53718,0.43727 -1.98073,0.97177 -0.64402,0.77596 -0.53292,1.11812 0.55155,1.69854 1.7268,0.92415 8.26506,0.94249 10.66524,0.0299 1.70072,-0.6466 1.80379,-0.90797 1.43087,-3.6287 -0.2512,-1.83273 -0.10662,-3.22716 0.38563,-3.7194 1.60831,-1.60832 7.55389,-0.64056 9.78755,1.5931 0.55907,0.55902 1.73909,1.01647 2.62227,1.01647 2.26315,0 5.16738,1.20237 6.95973,2.88134 1.18906,1.11391 1.52868,2.18392 1.52868,4.81639 0,2.56324 0.41213,3.92472 1.69855,5.61131 2.10584,2.76088 2.12229,4.43645 0.0864,8.80843 l -1.59884,3.43357 1.95229,1.95231 c 1.07376,1.07375 2.86631,3.78136 3.98344,6.01699 2.58266,5.16832 2.90131,12.37857 0.67231,15.21228 -2.56838,3.26514 -1.41678,6.30017 2.39052,6.30017 1.16532,0 3.62651,0.4372 5.46931,0.97156 5.14238,1.49112 10.48443,2.19554 10.48443,1.38248 z"
       id="path5046"
       inkscape:connector-curvature="0" />
    <path
       style="fill:#000000"
       d="m 567.67914,722.75108 c -0.71825,-1.734 -0.66677,-2.2093 0.36239,-3.3465 0.65974,-0.729 1.40909,-1.196 1.66521,-1.0377 0.25612,0.1583 0.34138,-0.5591 0.18947,-1.5942 -0.15192,-1.035 0.19354,-3.0061 0.76768,-4.3803 0.88181,-2.1104 1.36838,-2.4984 3.13363,-2.4984 2.77289,0 3.47177,-1.8112 4.08609,-10.58964 0.59581,-8.51405 1.47755,-10.13677 6.95586,-12.80124 4.60992,-2.24207 6.63429,-4.85402 6.63821,-8.56507 0.002,-1.92091 -0.38482,-2.63016 -1.93378,-3.54513 -3.12169,-1.844 -6.11144,-5.2826 -7.30074,-8.39674 -0.95424,-2.49864 -1.27119,-2.79548 -2.29933,-2.1534 -2.08652,1.30306 -3.31584,0.1871 -3.54193,-3.21528 l -0.20856,-3.13852 -4.02529,2.8246 c -6.46186,4.53439 -10.57446,4.50498 -16.67284,-0.11922 -2.58313,-1.95872 -4.5911,-2.91423 -6.59987,-3.14065 -2.54429,-0.28678 -2.97436,-0.58955 -3.62115,-2.54937 -0.91728,-2.77937 -0.36066,-5.04984 2.40758,-9.82064 1.19693,-2.06277 2.6902,-6.09529 3.31838,-8.96113 0.62819,-2.86585 1.54364,-5.54382 2.03432,-5.95106 0.4907,-0.40723 1.08813,-2.40773 1.32763,-4.44554 0.58942,-5.01499 1.56271,-6.89131 4.23167,-8.15782 3.0072,-1.427 3.23638,-1.9753 1.4591,-3.49069 -1.24881,-1.06478 -1.34628,-1.08004 -0.58021,-0.0908 1.49168,1.92621 -0.27677,1.36085 -2.63554,-0.84257 -2.04873,-1.91381 -2.14812,-2.2254 -1.71478,-5.37611 0.29204,-2.12343 0.16859,-3.88903 -0.33814,-4.83587 -0.9807,-1.83245 0.29937,-9.68923 1.77864,-10.91691 0.52059,-0.43205 0.9567,-1.28315 0.96913,-1.89133 0.0124,-0.60819 0.54747,-1.73164 1.18898,-2.49655 1.60204,-1.91024 6.3685,-5.07808 7.02769,-4.67068 0.84514,0.52233 -0.833,-3.92795 -2.24741,-5.95988 -0.70064,-1.00654 -2.35134,-4.52252 -3.66822,-7.8133 -1.91749,-4.79162 -3.06386,-6.60486 -5.75608,-9.10452 -2.78799,-2.58858 -3.36173,-3.52501 -3.36173,-5.48676 0,-2.4653 2.60595,-5.8338 3.72626,-4.81666 0.31246,0.28368 0.32704,0.0994 0.0324,-0.40945 -0.83268,-1.43821 0.91283,-2.11028 5.51062,-2.12174 4.96785,-0.0124 4.96152,-0.003 5.70739,-8.16341 0.29033,-3.17627 1.00462,-7.24494 1.58732,-9.04149 1.02542,-3.16155 1.0173,-3.25307 -0.25303,-2.84988 -2.15753,0.68477 -3.98524,-0.79283 -4.42038,-3.57362 -0.21857,-1.39676 -0.53286,-3.39554 -0.69843,-4.44173 -0.21737,-1.37357 -0.0679,-1.76811 0.53801,-1.41977 0.46148,0.26533 0.68617,0.30601 0.49933,0.0904 -0.18684,-0.21561 -0.53691,-0.34106 -0.77794,-0.27879 -0.64889,0.16768 -3.29856,-2.36646 -3.29856,-3.15474 0,-0.37368 0.68791,-0.097 1.52869,0.61487 l 1.52869,1.29428 -1.25282,-1.48287 c -0.68905,-0.81558 -1.65632,-1.32803 -2.14951,-1.13877 -0.6308,0.24206 -1.1381,-0.82924 -1.71078,-3.61276 -1.08627,-5.2798 -1.593,-6.08826 -4.39587,-7.01329 -3.31906,-1.09539 -5.34099,-0.48527 -12.52281,3.77879 -3.43969,2.04224 -8.1446,4.21956 -10.45536,4.83849 -4.92406,1.3189 -7.00723,2.95489 -8.00709,6.28826 -0.9,3.00046 -2.82029,5.27178 -6.74649,7.97972 -1.66988,1.15174 -3.61856,2.74113 -4.33042,3.53198 -1.73486,1.92739 -4.65689,1.82889 -7.7319,-0.26063 -1.8352,-1.24705 -3.39466,-1.69854 -5.86681,-1.69854 -3.83484,0 -6.93101,-1.72115 -8.72769,-4.85168 -1.07284,-1.86932 -1.30967,-1.94249 -6.2874,-1.94249 -4.47061,0 -5.47476,-0.23051 -7.39946,-1.69854 -1.2248,-0.9342 -3.1323,-1.69855 -4.23888,-1.69855 -1.10659,0 -3.04799,0.76435 -4.31423,1.69855 -2.77178,2.04495 -3.39897,2.08734 -5.57366,0.37673 -1.67896,-1.32067 -1.68256,-1.32029 -4.13687,0.42598 -1.59605,1.1356 -3.42886,1.77328 -5.23265,1.82058 -2.73566,0.0717 -2.79083,0.12317 -3.7794,3.52372 -0.68862,2.36878 -1.87808,4.28963 -3.79316,6.12554 -2.36599,2.26818 -5.94775,8.23754 -5.22728,8.71177 0.12465,0.082 1.08106,0.6841 2.12535,1.3379 1.0443,0.6538 2.17562,1.917 2.51403,2.80711 0.47126,1.2395 1.60083,1.8949 4.82497,2.79955 2.87511,0.80672 4.77048,1.81969 5.97868,3.1953 0.97297,1.10778 4.31897,4.07567 7.43556,6.59531 4.62452,3.73876 6.22253,4.64385 8.69013,4.92199 4.97931,0.56124 7.1917,3.8265 4.56171,6.73261 -1.37912,1.52392 -3.50914,1.59229 -5.52906,0.17747 -0.83628,-0.58575 -2.2037,-0.96792 -3.0387,-0.84927 -1.39501,0.19824 -1.53464,0.62777 -1.72089,5.29416 -0.29887,7.48772 -2.23175,9.08477 -7.04045,5.81717 l -2.46295,-1.67361 -0.40316,1.50376 c -0.22173,0.82707 -0.40733,2.36807 -0.41243,3.42442 -0.006,1.2083 -0.74587,2.65726 -1.99527,3.90665 -1.95762,1.95763 -1.96351,1.98599 -0.41239,1.98599 2.41298,0 3.42633,4.41584 1.39938,6.09806 -1.60833,1.3348 -7.46742,1.23513 -9.00314,-0.15316 -0.92696,-0.83798 -2.4527,-1.18898 -5.16838,-1.18898 -2.11923,0 -3.85315,0.16806 -3.85315,0.37345 0,0.20539 0.41706,1.19904 0.9268,2.20811 0.50975,1.00906 1.09442,3.76967 1.29928,6.13468 0.36548,4.2194 1.05986,6.04389 1.66035,4.36254 0.57875,-1.6205 3.72681,-0.88122 6.35382,1.49213 3.38873,3.06151 7.04492,4.0596 11.11597,3.03449 4.35545,-1.0967 5.9801,-0.45757 10.99953,4.32722 2.43768,2.32372 4.70322,4.32275 5.03455,4.44231 0.33133,0.11955 2.19394,2.56545 4.13913,5.43533 1.94519,2.86989 3.81083,5.40058 4.14586,5.62376 0.33503,0.22319 2.13227,0.25944 3.99386,0.0806 3.84792,-0.36974 5.30373,0.75809 5.34202,4.13856 0.0282,2.48735 1.39299,8.0494 2.24111,9.13328 0.3655,0.4671 1.21986,0.84927 1.89856,0.84927 1.37935,0 2.28416,3.93003 1.88121,8.17101 -0.26403,2.77882 -2.18266,3.45104 -4.85402,1.7007 l -1.65278,-1.08295 -0.31344,3.77967 c -0.20067,2.41984 -0.84269,4.49551 -1.78449,5.76936 -2.42567,3.2809 -1.96433,5.59087 1.75619,8.79351 1.77498,1.52794 4.42665,3.10643 5.89262,3.50783 1.46596,0.40133 3.24614,1.46808 3.95596,2.37042 1.56796,1.99334 2.17819,2.03241 4.40364,0.28189 1.97811,-1.556 4.1455,-1.77328 4.64717,-0.46595 0.55277,1.4405 -1.6435,8.88155 -2.89486,9.80793 -0.63097,0.4671 -1.62382,0.85396 -2.20634,0.85967 -0.93223,0.01 -0.93702,0.0904 -0.04,0.67819 0.56052,0.36723 2.29032,0.48497 3.84399,0.26151 1.55367,-0.22339 3.80002,-0.192 4.99188,0.0698 1.89688,0.41662 2.12431,0.69946 1.82434,2.26864 -0.58432,3.05663 0.45194,4.06753 3.78455,3.69188 2.16584,-0.24411 3.17091,-0.0448 3.83956,0.76068 1.4536,1.75147 2.04192,1.27098 1.62084,-1.32378 -0.54411,-3.35299 0.60525,-5.08591 4.92197,-7.421 2.03961,-1.1033 3.70839,-2.24602 3.70839,-2.53939 0,-0.29337 0.30839,-0.53341 0.6853,-0.53341 0.37691,0 1.95148,-0.91721 3.49903,-2.03825 3.31045,-2.39807 4.2586,-2.50868 5.82486,-0.67942 0.73164,0.85451 2.00424,1.35884 3.42874,1.35884 2.71207,0 5.77704,2.97415 7.10475,6.89418 0.52679,1.55532 1.76853,3.14665 3.21103,4.11516 1.52864,1.02626 2.50365,2.32021 2.78502,3.69596 0.23812,1.16432 1.10466,2.83793 1.92565,3.71913 2.00082,2.14764 1.75859,6.08105 -0.43372,7.0429 -0.90262,0.39599 -1.39652,1.08859 -1.21135,1.69859 0.28254,0.9308 -0.24336,4.9721 -1.37684,10.5804 -0.5678,2.8094 0.79449,3.955 3.55762,2.9918 2.30615,-0.804 4.56471,-0.1613 6.66931,1.8977 1.67027,1.6341 2.11549,0.7761 0.99764,-1.9226 z"
       id="path5002"
       inkscape:connector-curvature="0" />
    <path
       style="fill:#000000"
       d="m 414.38407,693.56375 c 1.55116,-1.67375 4.70068,-2.30411 5.45048,-1.09088 0.20655,0.33421 1.60989,0.72535 3.11854,0.86918 2.67526,0.25519 2.73296,0.21599 2.33699,-1.58691 -0.59091,-2.69036 0.499,-4.1791 5.27652,-7.20739 2.34272,-1.48501 4.84191,-3.35055 5.55377,-4.14574 1.54547,-1.72633 5.39376,-1.9341 8.87574,-0.47926 1.79831,0.75137 2.49781,1.58304 3.1431,3.73679 0.4565,1.52366 1.07294,2.77033 1.36986,2.77033 0.29693,0 1.52265,-1.22295 2.72384,-2.71767 3.32482,-4.13731 6.00141,-3.40341 6.07065,1.66457 0.0299,2.18833 0.43277,3.06322 1.96804,4.27387 1.60265,1.26372 1.99644,1.35028 2.31905,0.50957 0.21373,-0.55699 1.02205,-1.01268 1.79626,-1.01268 0.77422,0 2.3179,-0.67296 3.43039,-1.49546 l 2.02272,-1.49547 3.72098,1.26481 c 3.59554,1.2222 3.79783,1.22342 6.00038,0.0374 1.44482,-0.77814 2.91187,-1.0688 4.00686,-0.79397 1.8072,0.45358 10.02742,7.03231 10.02742,8.02507 0,0.31484 0.34574,0.57248 0.76831,0.57248 0.50389,0 0.63056,-0.84887 0.36805,-2.46649 -0.60053,-3.70072 0.82463,-5.82539 4.88733,-7.28634 1.88852,-0.67908 3.57038,-1.74345 3.73747,-2.36526 0.16709,-0.6218 0.49928,-2.00468 0.7382,-3.07307 l 0.43441,-1.94252 -1.82171,1.43296 c -2.39152,1.88117 -3.19411,1.8116 -5.86119,-0.50807 -1.22746,-1.06763 -3.32798,-2.29765 -4.66782,-2.7335 -1.33985,-0.43584 -4.09149,-2.27523 -6.11476,-4.08757 -3.49682,-3.13219 -3.67292,-3.44825 -3.56244,-6.3936 0.0724,-1.92866 0.65239,-3.82372 1.53631,-5.01929 0.95472,-1.29133 1.44548,-3.0316 1.49755,-5.3105 0.0426,-1.86436 0.21265,-3.92478 0.37788,-4.57872 0.37586,-1.48771 2.45575,-1.52875 4.64893,-0.0917 l 1.67464,1.09726 0,-3.06186 c 0,-2.68751 -0.20469,-3.11324 -1.67425,-3.48207 -1.30582,-0.32775 -1.90387,-1.1934 -2.71767,-3.93377 -0.57387,-1.93245 -1.04809,-4.60458 -1.05381,-5.93805 -0.0162,-3.76454 -0.62844,-4.26535 -4.57476,-3.74185 -3.8979,0.51707 -4.24881,0.25348 -9.01884,-6.7747 -1.38489,-2.04049 -4.01164,-4.98746 -5.83723,-6.5488 -1.82558,-1.56135 -4.15754,-3.73741 -5.18212,-4.83569 -1.85435,-1.98774 -1.88873,-1.99478 -7.50879,-1.53877 -4.89885,0.39749 -6.00084,0.27614 -8.32837,-0.91711 -1.47536,-0.75638 -3.42325,-2.16887 -4.32864,-3.13888 -1.51383,-1.62186 -1.74146,-1.6774 -2.8315,-0.69094 -1.89871,1.71832 -4.25183,0.97343 -5.00482,-1.58429 -0.70685,-2.40099 -1.7279,-2.96506 -1.7279,-0.95458 0,0.68945 -0.58604,1.7839 -1.30231,2.43212 -1.45577,1.31745 -2.86582,0.87897 -5.0952,-1.58447 -1.96278,-2.16891 -2.43491,-1.74637 -2.43491,2.17908 0,1.9805 -0.36688,3.9678 -0.8153,4.41621 -1.1212,1.1212 -2.92342,1.02182 -3.95233,-0.21794 -0.47163,-0.56828 -2.21925,-1.37613 -3.88358,-1.79521 -3.14111,-0.79095 -5.61655,-2.80054 -5.61655,-4.55961 0,-0.55939 0.65728,-1.71671 1.46061,-2.57182 1.62403,-1.7287 1.42781,-1.89339 -2.9893,-2.5087 -1.45629,-0.20286 -2.54781,-0.0689 -2.54781,0.31267 0,1.37091 -3.38793,4.00291 -5.15259,4.00291 -1.27905,0 -2.6605,0.90549 -4.66443,3.05737 -2.99387,3.21492 -4.29402,3.59203 -8.36187,2.42539 -1.84064,-0.52788 -2.20362,-0.45008 -2.20362,0.47239 0,0.6074 -0.79732,1.93659 -1.77181,2.95374 l -1.77181,1.84938 1.22228,3.62314 c 0.67226,1.99273 1.39314,5.88446 1.60196,8.6483 0.30678,4.06046 0.63753,5.16913 1.72285,5.77505 2.28449,1.27539 3.08312,2.69169 2.9399,5.21366 -0.0758,1.33405 0.4553,3.62708 1.18015,5.09563 1.38513,2.80633 1.64272,8.1546 0.71761,14.8996 -0.65056,4.74322 0.13128,5.73918 3.3139,4.22149 4.23903,-2.02145 6.33073,-1.57815 9.71845,2.05969 2.75154,2.9547 2.97176,3.45028 2.63821,5.93705 -0.2925,2.1808 -0.0391,3.13918 1.29171,4.88386 2.01572,2.64279 2.10205,5.11533 0.28143,8.06121 l -1.37419,2.22346 1.7139,3.22336 c 0.94264,1.77287 1.71389,3.78938 1.71389,4.48103 0,1.83918 2.47582,1.58861 4.35671,-0.44087 z"
       id="path4974"
       inkscape:connector-curvature="0" />
    <path
       style="fill:#000000"
       d="m 422.42051,605.72139 c 0.195,-3.73871 0.28741,-3.91621 2.1499,-4.12913 1.39647,-0.15965 2.49986,0.30802 3.90665,1.6558 l 1.9605,1.87829 0,-2.16537 c 0,-1.95301 0.19989,-2.16536 2.03826,-2.16536 1.77643,0 2.03516,-0.24 2.01417,-1.8684 -0.0133,-1.02761 -0.46101,-2.63274 -0.99505,-3.56694 -1.40611,-2.45972 -1.27081,-5.25283 0.29505,-6.09085 2.32931,-1.24661 8.4963,-0.85869 10.42131,0.65552 2.08806,1.64247 6.28096,1.83426 6.86434,0.31399 0.41003,-1.06851 0.11126,-1.25564 -3.14309,-1.96873 -2.51998,-0.55218 -2.3508,-1.90089 0.52989,-4.22427 1.81274,-1.46203 2.48701,-2.59781 2.76168,-4.65196 0.90248,-6.74925 1.76646,-7.44675 5.86467,-4.73468 1.46197,0.96749 3.01905,1.63865 3.46019,1.49146 0.51789,-0.17278 0.80293,-2.0146 0.80452,-5.19852 0.002,-4.35867 0.18833,-5.08144 1.60396,-6.22775 1.92499,-1.55876 3.19525,-1.61891 5.77498,-0.2735 2.59955,1.35576 3.98225,1.29346 3.70104,-0.16677 -0.16213,-0.84191 -1.16521,-1.31584 -3.48825,-1.64814 -3.59316,-0.51398 -7.42444,-3.07932 -14.74064,-9.87004 -3.18019,-2.95176 -5.29736,-4.28815 -8.40391,-5.30466 -3.09673,-1.0133 -4.36869,-1.81426 -5.00196,-3.1498 -0.46708,-0.98503 -1.93848,-2.30784 -3.26979,-2.93959 -2.22455,-1.05562 -2.38296,-1.32319 -1.95646,-3.30466 0.73198,-3.40064 2.25191,-5.9921 5.45242,-9.2963 1.91249,-1.97445 3.3371,-4.26931 4.00682,-6.45446 l 1.03921,-3.39071 -2.12805,-1.93604 c -1.80586,-1.64291 -2.4493,-1.85335 -4.24974,-1.38995 -4.26161,1.09687 -8.78157,0.70411 -11.12396,-0.96663 l -2.20811,-1.57495 0,1.76613 c 0,2.43813 -1.21377,2.69583 -6.94022,1.47352 -6.4622,-1.37935 -20.22392,-2.92141 -25.10749,-2.81341 -3.78129,0.0836 -3.90162,0.14807 -6.56304,3.51501 -3.67361,4.64748 -5.7678,6.17222 -10.24448,7.45885 -7.70368,2.21409 -8.74908,3.4253 -6.13045,7.10284 0.77326,1.08594 1.3083,2.66183 1.18898,3.50196 -0.35683,2.51232 -3.8691,2.35672 -10.43073,-0.46213 -6.06655,-2.60617 -6.43194,-2.71311 -6.43194,-1.88254 0,0.29923 1.35695,1.2033 3.01545,2.00905 1.65849,0.80577 3.71759,2.41473 4.57578,3.57549 l 1.56033,2.11047 4.93381,-0.46234 c 5.47348,-0.5129 8.33539,0.55477 8.33539,3.10964 0,1.13632 -0.46467,1.34317 -3.01728,1.34317 -1.6595,0 -3.19169,0.28222 -3.40488,0.62715 -0.21318,0.34493 -1.27898,0.82293 -2.36846,1.06222 -2.49666,0.54835 -5.47472,-0.92044 -9.57041,-4.72017 -1.69078,-1.56861 -3.83094,-3.32673 -4.75592,-3.90694 -1.92412,-1.20695 -9.2324,-2.18993 -9.77341,-1.31455 -0.19798,0.32033 0.37398,0.44211 1.271,0.27064 1.39427,-0.26654 1.88428,0.18811 3.37652,3.13293 0.96007,1.8946 1.74558,4.02892 1.74558,4.74294 0,0.71403 0.46169,1.6814 1.02598,2.14973 0.56429,0.46832 1.49225,2.45539 2.06214,4.41571 0.56988,1.96032 1.63687,4.10787 2.37109,4.77234 0.73423,0.66446 1.33496,1.90476 1.33496,2.75621 0,0.85145 0.92707,3.03946 2.06018,4.86223 2.20337,3.54449 3.18486,7.5023 2.3523,9.48554 -1.01513,2.41817 -0.26087,7.13609 1.58998,9.94519 1.79639,2.72647 1.81254,2.73379 2.02581,0.91758 0.33505,-2.85326 2.39114,-2.28789 5.10005,1.40239 1.30536,1.77826 3.61435,4.23046 5.13108,5.44934 1.77813,1.42894 3.0109,3.11618 3.47055,4.74995 0.39207,1.3936 1.1665,3.12729 1.72095,3.85265 0.55446,0.72536 1.00811,2.4726 1.00811,3.88275 0,3.07102 0.98687,3.75525 6.32028,4.38209 3.72631,0.43796 3.75367,0.42775 5.33693,-1.99099 1.72523,-2.63562 3.75083,-3.85589 6.40064,-3.85589 1.01461,0 1.83445,-0.47428 2.0553,-1.18898 1.04257,-3.37389 1.06467,-3.38155 7.66656,-2.65406 4.11001,0.4529 5.52512,3.23887 3.04,5.9849 -1.44428,1.59591 -0.38414,2.98886 2.71761,3.57075 1.22964,0.23068 2.82387,0.86442 3.54273,1.4083 2.03551,1.54005 2.24456,1.29598 2.46209,-2.87456 z"
       id="path4874"
       inkscape:connector-curvature="0" />
    <g
       transform="translate(-49.525374,-48.86554)"
       id="g7916">
      <path
         inkscape:connector-curvature="0"
         id="path5032"
         d="m 468.62736,804.45194 c 0.81621,-0.43761 3.99687,-1.16731 7.06812,-1.62156 5.92553,-0.87645 9.52219,-2.56175 13.79624,-6.46459 l 2.3949,-2.18691 -1.66624,-3.36685 c -0.91643,-1.85175 -2.52918,-4.00489 -3.58388,-4.78466 -2.30032,-1.70065 -2.43775,-3.68699 -0.54389,-7.86072 1.70091,-3.74848 1.68421,-4.50365 -0.15683,-7.0891 -1.11362,-1.56395 -1.46465,-2.93692 -1.36085,-5.32269 0.11777,-2.70666 -0.12711,-3.42501 -1.54867,-4.54327 -0.92871,-0.7305 -3.06431,-1.53446 -4.74579,-1.78666 -1.68147,-0.25213 -3.54299,-0.94418 -4.13672,-1.53793 -0.59372,-0.59374 -2.24799,-1.2932 -3.67616,-1.55437 l -2.59666,-0.47477 0.1011,3.02904 c 0.13979,4.1882 -1.84324,5.66199 -8.15962,6.06441 -5.703,0.36328 -9.28123,-1.10738 -9.61086,-3.9502 -0.271,-2.33719 1.24377,-3.76084 4.60593,-4.3289 1.50016,-0.25343 2.87706,-0.70266 3.05976,-0.99827 0.1827,-0.29562 -0.35074,-1.7974 -1.18542,-3.33723 l -1.51761,-2.79974 1.553,-2.72542 c 1.3421,-2.35526 1.45593,-3.07042 0.83824,-5.26623 -0.39311,-1.39742 -1.16839,-3.13428 -1.72284,-3.85963 -1.39761,-1.82845 -1.25954,-4.22869 0.39744,-6.90981 1.36405,-2.20702 1.36976,-2.33481 0.19323,-4.32652 -1.27442,-2.15743 -1.92287,-2.49747 -2.6179,-1.3729 -0.55793,0.90274 -4.15519,0.86693 -5.88455,-0.0584 -1.1295,-0.60448 -1.55864,-0.48151 -2.37182,0.67941 -1.34111,1.91474 -3.24614,1.78443 -4.9141,-0.33604 -0.94625,-1.20297 -1.78093,-1.62598 -2.65858,-1.34742 -1.78858,0.56766 -9.71091,-1.99775 -11.59773,-3.75554 -1.3392,-1.24768 -1.5218,-1.96066 -1.26634,-4.94416 0.36869,-4.30579 3.39405,-15.12885 5.24086,-18.7489 1.8588,-3.64355 1.72666,-5.2482 -0.59289,-7.19997 -1.08025,-0.90898 -2.15132,-2.39863 -2.38014,-3.31034 -0.31747,-1.26491 -0.9387,-1.70807 -2.62197,-1.8704 l -2.20593,-0.21295 -0.40896,-5.09562 c -0.22493,-2.8026 -0.75997,-5.95631 -1.18898,-7.00826 -0.42901,-1.05194 -0.78002,-3.13086 -0.78002,-4.61981 0,-1.48894 -0.41891,-3.53277 -0.9309,-4.54183 -0.512,-1.00906 -1.1752,-3.36335 -1.4738,-5.23174 -0.49349,-3.08791 -0.57897,-3.21158 -0.93922,-1.35884 -0.23632,1.2153 -1.01285,2.30904 -1.92329,2.70893 -0.88407,0.3883 -1.52696,1.27029 -1.52696,2.09486 0,0.78331 -0.21425,1.63845 -0.4761,1.9003 -0.26185,0.26185 -0.38773,3.26739 -0.27973,6.67898 0.14286,4.51292 0.7422,7.97612 2.19985,12.71153 1.7327,5.62893 2.09038,8.20814 2.6463,19.08226 0.91934,17.98264 1.28242,21.15531 3.42166,29.89873 2.32302,9.49458 5.63211,19.10548 10.1541,29.49159 1.86772,4.28978 3.39585,8.00795 3.39585,8.2626 0,0.25465 0.80917,2.26606 1.79816,4.46982 1.66691,3.71437 1.85287,3.89897 2.54781,2.5296 0.41232,-0.81251 1.30323,-1.81302 1.9798,-2.22332 2.35159,-1.4263 5.88946,4.60298 5.89995,10.05476 0.002,1.08272 0.65084,3.74311 1.4417,5.91215 1.32467,3.63298 1.57883,3.91793 3.22723,3.61824 0.98412,-0.17896 2.23895,-0.0279 2.7885,0.33536 0.85102,0.56283 0.86792,1.02374 0.11398,3.10874 -0.94022,2.60013 -0.2584,4.42042 1.65573,4.42042 1.70844,0 4.33933,-1.56646 4.73743,-2.8208 0.52786,-1.66315 3.15135,-1.61736 4.20727,0.0734 0.45654,0.73105 1.02777,2.56548 1.2694,4.0765 0.49141,3.07314 0.46498,3.05269 2.51841,1.95163 z"
         style="fill:#000000" />
      <path
         inkscape:connector-curvature="0"
         id="path4950"
         d="m 446.51091,722.35879 c 0.78703,0 2.21162,0.29684 3.16576,0.65958 1.40989,0.53606 1.97888,0.39759 3.03802,-0.73928 2.02001,-2.16822 2.09822,-3.6984 0.32259,-6.3115 -2.37827,-3.49994 -3.7253,-4.03002 -6.95609,-2.73731 -1.48028,0.59229 -3.55816,0.97764 -4.6175,0.85634 -1.57821,-0.18071 -2.104,-0.73525 -2.91128,-3.07043 -0.88473,-2.55924 -0.86412,-3.23404 0.20211,-6.6165 1.33843,-4.24602 1.04286,-7.56538 -0.99062,-11.12482 -0.72459,-1.26833 -1.28366,-3.55118 -1.28366,-5.24158 0,-2.41132 -0.29776,-3.15325 -1.52869,-3.80893 -2.63802,-1.40522 -3.18276,-2.77147 -3.21602,-8.06593 -0.0176,-2.8026 -0.32839,-5.55424 -0.69062,-6.11476 -0.46958,-0.72662 -0.66269,0.0534 -0.6728,2.71767 -0.0191,5.03021 -1.12163,8.81816 -2.58637,8.88606 -0.73689,0.0342 -0.84206,0.18028 -0.28961,0.40238 0.47709,0.19181 1.45313,1.49679 2.16897,2.89996 0.71584,1.40316 2.08348,3.06356 3.03921,3.68978 2.22222,1.45605 2.24222,3.73186 0.0737,8.38947 -1.39158,2.98891 -4.3765,12.73462 -5.63236,18.38958 -0.2099,0.94512 0.13348,2.08096 0.87768,2.90333 1.59132,1.7584 7.91021,3.58548 10.46183,3.0251 1.64055,-0.36036 2.18165,-0.13119 3.13843,1.32901 1.05068,1.60356 1.26099,1.66953 2.30622,0.72365 0.63256,-0.57248 1.79404,-1.04087 2.58107,-1.04087 z"
         style="fill:#000000" />
      <path
         inkscape:connector-curvature="0"
         id="path4902"
         d="m 427.67372,670.16156 c -1.37483,-4.81017 -1.59202,-7.29348 -0.77191,-8.82587 0.63872,-1.19345 0.5283,-1.41966 -0.78398,-1.60604 -1.04903,-0.149 -1.78136,-0.96168 -2.33831,-2.5949 -0.47945,-1.40593 -0.81441,-1.82252 -0.81945,-1.01913 -0.005,0.74736 0.43206,2.58179 0.97055,4.07651 0.53849,1.49471 0.99451,3.63488 1.01338,4.75592 0.0189,1.12103 0.47124,2.80259 1.00528,3.73679 0.53403,0.9342 1.0025,3.07436 1.04103,4.75592 0.0634,2.76473 0.14285,2.90608 0.83051,1.47672 0.57518,-1.19557 0.53934,-2.35424 -0.1471,-4.75592 z"
         style="fill:#000000" />
      <path
         inkscape:connector-curvature="0"
         id="path4894"
         d="m 424.03966,664.09877 c -0.17089,-0.65394 -0.31072,-0.11889 -0.31072,1.18898 0,1.30788 0.13983,1.84292 0.31072,1.18898 0.17089,-0.65394 0.17089,-1.72402 0,-2.37796 z"
         style="fill:#000000" />
      <path
         inkscape:connector-curvature="0"
         id="path4850"
         d="m 426.88233,651.01999 c 0.64523,0 1.54003,0.36689 1.98844,0.81531 1.44069,1.44069 0.96084,-2.11449 -0.54353,-4.027 -0.74736,-0.95011 -1.35884,-2.40321 -1.35884,-3.22909 0,-0.82589 -0.66331,-2.08404 -1.47404,-2.7959 -1.39252,-1.2227 -1.44888,-1.22546 -1.01912,-0.0497 0.2502,0.6845 0.49038,3.58901 0.53372,6.45446 0.0434,2.86545 0.21864,4.67487 0.38953,4.02093 0.17089,-0.65393 0.83862,-1.18898 1.48384,-1.18898 z"
         style="fill:#000000" />
      <path
         inkscape:connector-curvature="0"
         id="path4846"
         d="m 419.99845,649.73437 c -0.42431,-3.16347 -3.14883,-7.21162 -4.16782,-6.19263 -0.88207,0.88207 -3.60496,0.88512 -4.14911,0.005 -0.23095,-0.37368 -0.73085,-0.67942 -1.1109,-0.67942 -0.38005,0 0.0202,0.87797 0.88937,1.95107 1.09557,1.35255 1.83089,1.75217 2.39703,1.3027 0.44917,-0.3566 1.37666,-0.47063 2.06111,-0.2534 1.39041,0.4413 3.57669,3.75878 3.57669,5.42731 0,0.59629 0.19312,1.08416 0.42916,1.08416 0.23605,0 0.26956,-1.19001 0.0745,-2.64446 z"
         style="fill:#000000" />
      <path
         inkscape:connector-curvature="0"
         id="path4836"
         d="m 422.8919,644.00849 c 0,-0.66175 -4.13262,-4.70894 -4.46695,-4.37461 -0.47519,0.47519 0.95744,3.36192 2.02085,4.07198 0.74952,0.50046 2.4461,0.71036 2.4461,0.30263 z"
         style="fill:#000000" />
      <path
         inkscape:connector-curvature="0"
         id="path4834"
         d="m 413.6708,639.85639 c -0.32383,-1.29027 -1.01714,-1.92457 -2.40752,-2.20265 -1.55983,-0.31196 -2.09205,-0.90802 -2.64528,-2.96256 -0.48517,-1.8018 -1.37508,-2.97472 -2.97165,-3.91672 l -2.27907,-1.34468 0.94366,3.15166 c 0.51901,1.73342 1.42501,4.41808 2.01334,5.96592 1.03637,2.72664 1.14951,2.80353 3.63493,2.47017 1.58553,-0.21267 2.75464,-0.0376 3.06109,0.45818 0.78465,1.26959 1.14834,0.36423 0.6505,-1.61932 z"
         style="fill:#000000" />
    </g>
    <path
       style="fill:#000000"
       d="m 369.81177,533.53337 c -0.46673,-0.74736 -1.0565,-1.35884 -1.31061,-1.35884 -0.89141,0 -1.33207,-4.01131 -0.59248,-5.39326 0.89126,-1.66533 4.91031,-3.82683 8.29684,-4.46214 3.73864,-0.70137 6.27323,-2.57418 10.13605,-7.48953 2.9313,-3.73001 3.78136,-4.42071 4.96276,-4.03239 0.78408,0.25773 2.80141,0.40988 4.48296,0.33812 4.12085,-0.17585 16.97184,1.20196 22.42077,2.40383 5.84401,1.28901 6.11475,1.25584 6.11475,-0.74933 0,-2.51065 1.53917,-2.70641 5.05933,-0.64345 2.91811,1.71012 3.44534,1.79419 8.46507,1.34984 l 5.35314,-0.47386 2.79997,2.52961 c 2.42523,2.19105 3.11841,2.47793 5.17926,2.14349 1.30861,-0.21235 3.18012,-1.01602 4.1589,-1.78593 2.09811,-1.65038 4.49178,-1.80443 5.9155,-0.38071 1.31329,1.31328 1.57839,1.2886 3.64846,-0.33971 2.50466,-1.97017 7.61587,-1.8427 10.90078,0.27186 2.15725,1.38865 3.11019,1.5781 6.4203,1.27633 3.07798,-0.28061 3.97475,-0.63069 4.30839,-1.6819 0.58502,-1.84323 -0.0765,-2.26194 -2.10979,-1.33549 -5.17981,2.36008 -8.15903,-0.11636 -7.6419,-6.35222 0.29535,-3.56156 0.23668,-3.72867 -1.30912,-3.72867 -0.89008,0 -2.49523,0.45347 -3.56702,1.00771 -1.33613,0.69093 -3.45305,0.93746 -6.73435,0.78424 -6.73884,-0.31466 -8.27959,-1.86265 -5.4431,-5.46867 l 1.43296,-1.82172 -1.60281,0.33036 c -0.88156,0.18171 -3.9691,0.5141 -6.86123,0.73866 -5.5587,0.43161 -7.6181,-0.12194 -8.28632,-2.22733 -0.29233,-0.92106 -0.93245,-1.16315 -2.59383,-0.98096 -1.58731,0.17406 -3.25013,-0.3881 -5.93098,-2.00514 -3.11965,-1.88171 -3.78862,-2.63359 -4.11497,-4.62494 -0.21434,-1.30786 -0.9313,-3.20148 -1.59326,-4.20804 -1.09787,-1.66939 -1.48322,-1.79698 -4.38812,-1.45294 -4.1919,0.49647 -7.71879,-0.99839 -9.74822,-4.13174 -1.69848,-2.62238 -4.10641,-4.04612 -8.52042,-5.03788 -3.55069,-0.79779 -5.63138,-2.39244 -10.59374,-8.11906 -3.57453,-4.12507 -3.92157,-4.79667 -3.58848,-6.94466 0.43234,-2.78803 0.20832,-3.1963 -3.12847,-5.70143 -3.62358,-2.72044 -3.88184,-4.20633 -1.13035,-6.50337 2.00262,-1.67186 2.24125,-2.2298 2.12233,-4.96217 -0.14126,-3.24566 0.39754,-4.06696 3.22774,-4.92007 0.9342,-0.2816 2.53932,-1.10419 3.56694,-1.82796 1.66061,-1.16962 1.87005,-1.74528 1.88332,-5.17635 0.009,-2.36624 0.53508,-5.00671 1.35883,-6.8221 2.35474,-5.18937 1.72724,-6.01833 -3.64553,-4.81595 -3.04913,0.68237 -4.22047,0.63047 -7.53797,-0.33395 l -3.92787,-1.14187 -2.65531,1.84014 c -3.75582,2.60278 -8.2518,2.92212 -13.50125,0.95895 -2.99764,-1.12104 -4.82239,-1.41333 -6.82467,-1.09314 -2.66969,0.42689 -4.37595,-0.0654 -6.20397,-1.79 -1.96395,-1.85284 -3.23001,-2.63349 -5.17625,-3.19166 l -2.0304,-0.58231 0.65135,2.35901 c 0.78633,2.84783 -0.56662,5.40145 -3.39687,6.4114 -1.01427,0.36194 -2.26867,1.6152 -2.83721,2.83464 -0.7951,1.70536 -1.39252,2.14971 -2.71767,2.02137 -0.9342,-0.0905 -4.08017,-0.15475 -6.99104,-0.14282 -4.20003,0.0172 -5.68042,-0.25455 -7.17184,-1.31654 l -1.87935,-1.33821 -1.8594,2.33031 c -1.02266,1.28167 -2.40019,2.33031 -3.06115,2.33031 -0.66097,0 -1.81371,0.57012 -2.56166,1.26693 -2.46323,2.29486 -4.39699,2.97279 -7.20077,2.52445 -2.58243,-0.41295 -3.66298,-0.008 -8.14229,3.05259 -0.6086,0.41582 0.62071,3.41425 6.20153,15.12613 5.33485,11.1957 8.20695,15.17374 8.20695,11.36712 0,-2.78898 2.50055,-2.29788 7.11077,1.39652 4.34114,3.47877 4.43932,3.62865 4.43932,6.77705 0,6.53563 -1.59989,7.05107 -5.06631,1.63219 -2.53118,-3.95687 -3.66479,-4.99949 -2.03146,-1.86839 1.97263,3.78153 0.35657,5.73462 -2.56061,3.0946 -1.40845,-1.27463 -1.77035,-2.10821 6.10439,14.06068 3.07986,6.32375 4.84596,11.18222 6.91527,19.02368 1.52848,5.79203 3.38224,11.95757 4.11947,13.7012 0.73723,1.74364 1.65582,5.39415 2.04132,8.11224 0.38549,2.71811 0.85334,5.09445 1.03966,5.28076 0.18632,0.18632 1.71605,-0.33038 3.39941,-1.14821 1.68335,-0.81784 3.6996,-1.48698 4.48054,-1.48698 1.59581,0 1.62352,0.18823 -1.04994,-7.13388 -2.528,-6.92375 -2.50077,-7.01092 2.14151,-6.85462 4.28712,0.14433 4.08153,-0.19848 3.16707,5.2808 -0.41679,2.49739 -0.41213,2.50314 2.1992,2.71767 2.31243,0.18998 2.6427,0.44077 2.83883,2.15568 0.14369,1.25628 -0.036,1.78125 -0.50956,1.4886 -1.14757,-0.70925 -0.85568,0.0404 0.41803,1.07358 0.7811,0.63359 0.98601,0.66026 0.63931,0.0832 -0.66808,-1.11204 0.69615,-1.1085 1.40461,0.003 0.63888,1.00291 9.51294,5.1022 11.2499,5.19678 1.02711,0.0559 1.07567,-0.12559 0.34613,-1.29377 z"
       id="path4768"
       inkscape:connector-curvature="0" />
    <path
       style="fill:#000000"
       d="m 471.20259,502.28009 c 1.46494,-0.74736 3.57559,-1.35883 4.69033,-1.35883 2.50253,0 4.41198,-2.30272 3.43036,-4.13688 -0.97456,-1.82098 -0.78251,-2.25045 0.54188,-1.21179 1.07594,0.84381 1.10092,0.82014 0.26272,-0.24904 -0.50944,-0.64982 -1.19264,-1.01686 -1.51822,-0.81564 -0.71531,0.44208 -2.9203,-3.03945 -4.45514,-7.03437 -0.98406,-2.56132 -1.01461,-3.51341 -0.25074,-7.81329 0.47843,-2.6931 1.31962,-6.53122 1.86931,-8.52915 0.63583,-2.31103 0.8339,-4.73643 0.54444,-6.66673 -0.44665,-2.9784 0.45022,-5.40741 1.70927,-4.62928 0.30552,0.18882 0.77672,-0.0147 1.04711,-0.45217 0.32811,-0.53089 0.19514,-0.61223 -0.39979,-0.24455 -0.68066,0.42068 -0.78192,0.1644 -0.42832,-1.084 1.33784,-4.72323 1.30779,-5.21799 -0.34764,-5.7234 -3.76185,-1.1485 -5.10841,-4.55099 -2.93717,-7.42162 0.54863,-0.72536 0.99752,-2.14018 0.99752,-3.14404 0,-2.69428 1.40276,-3.46522 5.86505,-3.22339 3.75318,0.20341 3.95361,0.13058 4.60173,-1.67199 0.5252,-1.46068 0.41759,-2.32491 -0.47836,-3.84162 -1.73812,-2.94242 -1.43228,-6.08815 0.89036,-9.15758 2.16211,-2.8573 2.47407,-4.12153 2.94952,-11.95311 l 0.30935,-5.09563 -4.52101,0 -4.52101,0 0,-3.39708 c 0,-1.8684 -0.37288,-4.00856 -0.82861,-4.75592 -0.45574,-0.74736 -0.83792,-1.03781 -0.84928,-0.64545 -0.0113,0.39236 0.34623,1.08027 0.79464,1.52869 0.63412,0.63412 0.63039,0.8153 -0.0168,0.8153 -1.04883,0 -2.34135,-3.29938 -1.92149,-4.90494 0.17382,-0.66465 -0.008,-1.40888 -0.40459,-1.65382 -0.45457,-0.28095 -0.51722,-0.11628 -0.16968,0.44606 0.42076,0.68079 0.16463,0.7817 -1.084,0.42708 -0.89921,-0.25539 -4.84518,-1.22051 -8.76881,-2.14472 -9.15352,-2.15611 -16.26488,-4.29367 -18.06597,-5.43033 -0.78114,-0.49297 -2.65209,-1.22802 -4.15767,-1.63342 -3.04627,-0.82029 -6.31184,-3.09477 -6.31184,-4.39624 0,-0.46609 0.91721,-1.87479 2.03825,-3.13043 1.2557,-1.40649 2.03825,-3.02774 2.03825,-4.22278 0,-1.06688 0.42429,-2.61694 0.94287,-3.44457 0.51858,-0.82763 1.13678,-2.61331 1.37378,-3.96818 0.31557,-1.80401 1.42145,-3.40021 4.13144,-5.9632 3.99946,-3.78252 4.40485,-3.85046 9.83365,-1.64807 2.9538,1.19831 6.09521,1.33741 7.93748,0.35145 0.78098,-0.41797 1.54896,-0.63094 1.70661,-0.47329 0.15767,0.15766 0.33174,-0.3117 0.38682,-1.04303 0.0808,-1.07254 -0.33511,-1.32968 -2.15064,-1.32968 -7.34585,0 -11.4634,-3.86283 -8.09041,-7.58995 1.04796,-1.15797 1.04156,-1.33404 -0.094,-2.58888 -0.9487,-1.0483 -1.12748,-2.01027 -0.80749,-4.34487 0.40953,-2.98791 0.40269,-3.00002 -1.94193,-3.43987 -1.50508,-0.28236 -3.639,-1.65613 -5.92211,-3.81254 l -3.56923,-3.37114 1.35884,-2.54341 c 1.49434,-2.79704 4.27833,-3.72212 6.26854,-2.08293 0.96351,0.79358 1.04011,0.69501 0.65673,-0.84514 -0.27659,-1.11114 -0.0394,-2.30685 0.65396,-3.29677 1.03518,-1.47795 0.98836,-1.65289 -0.96541,-3.60666 -1.40047,-1.40046 -2.34634,-1.86773 -2.97476,-1.46954 -0.50677,0.32111 -1.22713,0.58851 -1.60081,0.59423 -0.37368,0.005 -0.71764,0.39258 -0.76435,0.85968 -0.0467,0.46709 -0.12314,1.09218 -0.16985,1.38907 -0.20268,1.28824 -6.86912,5.52736 -10.44734,6.64335 -3.87292,1.2079 -3.94092,1.20515 -7.58829,-0.3066 l -3.68035,-1.52542 -3.11254,1.41793 c -5.20664,2.37189 -6.74548,2.42878 -10.38087,0.38374 -4.19848,-2.36179 -7.03918,-2.37648 -9.80323,-0.0507 -1.17829,0.99147 -2.57737,1.63574 -3.10905,1.43171 -2.08423,-0.79979 -9.8962,-2.41852 -11.62426,-2.40867 -3.84984,0.0219 -3.98209,0.8915 -0.86356,5.67801 1.64702,2.52794 3.05008,5.59633 3.25392,7.1161 0.32564,2.4278 0.18047,2.75685 -1.5894,3.60259 -1.2193,0.58265 -2.03566,1.56365 -2.18274,2.62294 -0.33615,2.42101 -1.35229,3.39072 -3.55306,3.39072 -2.72344,0 -5.08601,1.23086 -6.13895,3.19829 -1.36626,2.55288 -4.4122,4.83073 -7.59892,5.68269 -3.48283,0.93113 -4.55517,1.74977 -4.55517,3.4775 0,0.93309 0.34942,1.22304 1.18898,0.98665 5.43431,-1.53008 8.16513,-0.569 7.37121,2.59422 -0.51177,2.03904 0.70416,2.74753 5.87742,3.42462 2.51044,0.32856 3.22723,0.69647 3.22723,1.6564 0,1.81223 -1.65203,2.88095 -4.69348,3.03624 -1.912,0.0976 -3.08614,0.61647 -4.06991,1.79849 -1.67595,2.01369 -1.76261,3.45939 -0.36892,6.15451 0.58242,1.12627 0.96459,3.02195 0.84928,4.21261 -0.25323,2.61449 -2.16235,3.15517 -5.41367,1.5332 -3.00187,-1.49753 -3.26353,-1.42961 -7.66793,1.99048 -4.28914,3.33059 -6.90234,3.87215 -8.76308,1.81606 -0.78095,-0.86295 -1.76241,-1.14753 -3.21984,-0.93362 -1.38888,0.20384 -2.70778,-0.13718 -3.9077,-1.01037 -3.19222,-2.32304 -3.33245,-2.32308 -4.70219,-10e-4 -1.09686,1.85902 -1.97148,2.39105 -5.07104,3.0847 -4.59635,1.02863 -6.58809,2.33979 -5.62634,3.70384 0.37368,0.52999 1.24817,1.76862 1.9433,2.75251 1.42399,2.01552 1.16457,4.14395 -0.80093,6.57122 -1.66318,2.05396 -3.70688,1.51186 -7.62661,-2.02295 -1.66518,-1.50166 -3.6905,-2.73461 -4.50072,-2.73988 -0.81021,-0.005 -1.95673,-0.19517 -2.54781,-0.42199 -0.90786,-0.34838 -1.0747,0.23331 -1.0747,3.74705 0,2.2877 -0.50683,5.98243 -1.12629,8.21052 l -1.1263,4.05106 3.03996,3.24996 c 1.67198,1.78748 3.38272,3.85804 3.80165,4.60124 0.6103,1.0827 0.93216,1.18249 1.61931,0.50202 1.2119,-1.20011 2.87391,-1.05641 5.47278,0.4732 2.98921,1.75934 13.45483,1.73742 13.45637,-0.0282 0.001,-1.28204 1.62749,-2.74865 4.32782,-3.90269 2.04626,-0.87451 2.07398,-1.12144 0.72794,-6.48446 -0.42004,-1.67378 -0.30124,-1.77797 2.02724,-1.77797 3.09505,0 6.28242,1.32848 8.74941,3.64671 1.61789,1.52033 2.5129,1.78863 5.96672,1.78863 2.23483,0 5.20001,0.48582 6.58931,1.07961 4.10005,1.75235 8.43367,1.52237 11.51204,-0.61094 2.91893,-2.02282 4.51014,-2.215 8.48346,-1.02456 2.08558,0.62485 3.8114,0.61283 7.78127,-0.0542 2.80572,-0.47145 5.26347,-0.695 5.46167,-0.4968 1.06595,1.06595 0.94822,6.47606 -0.18796,8.63777 -0.80914,1.53945 -1.18866,3.63134 -1.12739,6.21394 0.0767,3.23247 -0.19338,4.23285 -1.59131,5.89419 -0.92602,1.10052 -2.92775,2.41564 -4.44828,2.92247 -2.74671,0.91558 -2.76537,0.94496 -2.88525,4.54365 -0.10204,3.06295 -0.40968,3.85258 -1.99284,5.11495 l -1.87217,1.49282 3.07661,2.20946 c 2.91145,2.09085 3.07661,2.38368 3.07661,5.45485 0,2.65823 0.39779,3.72617 2.19863,5.90269 4.56208,5.5138 7.31974,7.64171 10.89765,8.40904 3.46159,0.74237 7.96565,3.05124 7.96565,4.08334 0,0.30369 0.88701,1.5017 1.97113,2.66226 1.84459,1.97463 2.27868,2.1101 6.76154,2.1101 l 4.7904,0 2.03378,2.95602 c 1.29549,1.88291 1.90136,3.46246 1.66897,4.35111 -0.5373,2.05463 4.59456,4.92238 8.80864,4.92238 2.83902,0 3.19941,0.17857 3.6026,1.78503 l 0.44801,1.78503 7.72038,-0.47543 c 6.79779,-0.41861 7.77134,-0.34258 8.14695,0.63626 0.23463,0.61143 0.0141,1.93296 -0.49019,2.93675 -0.50424,1.0038 -1.04231,2.09577 -1.19573,2.42662 -0.15341,0.33086 0.75399,0.42943 2.01646,0.21905 1.26246,-0.21038 2.90686,-0.1204 3.65422,0.19996 0.74736,0.32037 1.44745,0.60397 1.55575,0.63023 0.10831,0.0263 1.39551,-0.56372 2.86046,-1.31108 z"
       id="path4704"
       inkscape:connector-curvature="0" />
    <path
       style="fill:#000000"
       d="m 338.25619,268.96746 c 0.1346,-0.94774 0.87079,-3.10718 2.34507,-3.84703 3.39582,-1.40827 4.90743,-3.30561 4.69046,-4.70158 l -0.35589,-2.24994 c -0.79306,-5.01375 6.43054,1.3864 7.81181,-0.55342 1.70332,-2.39209 5.21297,-3.03768 3.76122,-5.94778 -2.13824,-4.28621 0.59693,-9.56591 4.95567,-9.56591 1.87379,0 2.58825,0.46591 4.12792,2.69189 2.19332,3.17096 3.62337,3.38302 6.49862,0.96366 1.9058,-1.60363 2.49526,-1.74006 5.95538,-1.37841 4.30646,0.45012 4.96595,0.0313 7.06351,-4.48524 1.168,-2.51502 2.55529,-3.24548 3.44125,-1.81196 0.26989,0.43669 0.97272,-0.11578 1.72866,-1.35883 1.11452,-1.83269 1.65006,-2.0947 4.2815,-2.0947 2.95194,0 3.015,-0.0472 3.40488,-2.54781 0.44966,-2.88406 0.25704,-4.64162 -0.59353,-5.41567 -0.31985,-0.29108 -0.36161,-0.14706 -0.0928,0.32004 0.74696,1.29799 -0.5596,1.01245 -2.55722,-0.55887 -1.62061,-1.27478 -1.79016,-1.84605 -1.79016,-6.03157 0,-3.28084 0.29594,-4.86902 1.01912,-5.46921 1.35935,-1.12815 1.29965,-4.0115 -0.0941,-4.54634 -0.61229,-0.23496 -3.59323,0.39136 -6.62431,1.3918 -6.52418,2.1534 -7.81176,2.21152 -11.14333,0.50299 -3.02776,-1.55273 -5.24578,-3.87164 -5.91195,-6.18087 -0.26949,-0.9342 -1.88147,-3.13375 -3.58217,-4.88789 -3.058,-3.1541 -3.11416,-3.17798 -5.08136,-2.16071 -1.80226,0.93199 -2.3052,0.91501 -5.3523,-0.18071 -4.39049,-1.5788 -5.08711,-2.49541 -5.60739,-7.37816 -0.32064,-3.00909 -0.24176,-3.80965 0.30122,-3.05738 0.65386,0.90589 0.70469,0.90589 0.4574,0 -0.15301,-0.56052 -0.55846,-1.02266 -0.901,-1.02698 -0.34254,-0.004 -1.63228,-0.43015 -2.86609,-0.94628 -2.18849,-0.91548 -4.16339,-0.66485 -8.80955,1.11806 -0.77416,0.29707 -0.90888,0.14664 -0.49978,-0.55803 0.30805,-0.5306 0.38369,-0.81186 0.16808,-0.62502 -0.21561,0.18684 -0.34106,0.53692 -0.27879,0.77794 0.21683,0.83915 -2.48322,3.29856 -3.62131,3.29856 -1.92988,0 -2.71991,-4.52581 -2.71991,-15.58135 0,-12.12797 1.50698,-11.48497 -11.92415,-5.08781 -5.03836,2.39973 -9.87199,4.36315 -10.74139,4.36315 -0.86941,0 -3.38661,-0.63128 -5.59376,-1.40284 -2.20715,-0.77156 -5.84744,-1.45947 -8.08951,-1.52869 -3.99491,-0.12332 -4.08087,-0.0878 -4.29477,1.77654 -0.16086,1.40208 0.25091,2.27144 1.56567,3.30564 2.43017,1.91157 2.02567,3.98326 -1.0737,5.49913 l -2.44397,1.19533 0.60271,3.84343 c 0.45915,2.92795 0.39396,3.97588 -0.2737,4.39947 -1.47192,0.93384 -6.67877,0.61649 -13.0715,-0.7967 -7.02729,-1.55347 -10.53773,-1.71691 -10.62839,-0.49486 -0.0346,0.4671 -0.01,2.17883 0.0554,3.80385 0.0857,2.1383 -0.25884,3.35838 -1.24718,4.41621 -1.13796,1.21796 -1.22293,1.6554 -0.50963,2.62391 0.47079,0.63924 1.67185,1.47245 2.66902,1.85157 2.1715,0.82561 2.36546,2.73007 0.45419,4.45974 -2.03141,1.8384 -1.69231,2.70173 1.98902,5.06404 1.84132,1.18157 4.36365,3.49894 5.60519,5.14971 2.77542,3.69026 3.63398,4.00731 7.3251,2.70501 1.60401,-0.56593 3.83454,-1.02896 4.95674,-1.02896 l 2.04035,0 -0.57049,3.56694 c -0.91693,5.73298 -0.59369,8.70228 1.49296,13.71404 1.93689,4.65208 2.00475,4.72268 5.35787,5.57385 3.95857,1.00486 6.04741,3.09122 7.22747,7.21886 1.09618,3.83429 1.44488,4.21204 4.82217,5.2239 1.59201,0.47697 3.89931,1.74941 5.12733,2.82762 2.73582,2.40209 4.11927,2.45141 7.34575,0.26186 2.9947,-2.03226 6.13569,-2.14796 8.34548,-0.30739 1.3889,1.15681 1.5672,1.77859 1.2689,4.42499 -0.39069,3.46623 0.18269,4.35079 3.9919,6.15838 1.31843,0.62563 1.30552,0.16866 1.88103,1.047 1.3155,2.0077 2.40542,2.1551 2.68404,0.1933 z"
       id="path4514"
       inkscape:connector-curvature="0"
       sodipodi:nodetypes="cccssssssssssssssssssssssssssscsssscssssssssscsssccsssssssscssssssssssscc" />
    <g
       id="g7659"
       transform="translate(-47.498034,-72.97615)">
      <path
         id="path6973"
         d="m 211.52625,204.24713 c -0.4368,-0.17672 -1.30778,-0.18748 -1.93552,-0.0239 -0.62773,0.16357 -0.27034,0.30817 0.79419,0.32132 1.06454,0.0132 1.57813,-0.12069 1.14133,-0.29742 z"
         style="fill:#000000"
         inkscape:connector-curvature="0" />
      <path
         id="path6971"
         d="m 217.62967,202.34502 c -0.21438,-0.21439 -0.77085,-0.23731 -1.23658,-0.0509 -0.51468,0.20595 -0.3618,0.35883 0.38979,0.38979 0.68012,0.028 1.06117,-0.12447 0.84679,-0.33886 z"
         style="fill:#000000"
         inkscape:connector-curvature="0" />
      <path
         id="path6969"
         d="m 229.9089,195.8398 c -0.61684,-0.16148 -1.77815,-0.16734 -2.58069,-0.013 -0.80253,0.15432 -0.29785,0.28644 1.12153,0.29361 1.41938,0.007 2.076,-0.11911 1.45916,-0.28059 z"
         style="fill:#000000"
         inkscape:connector-curvature="0" />
      <path
         id="path6965"
         d="m 256.51473,189.50878 c -0.44175,-0.53227 -1.56602,-0.92822 -2.49839,-0.8799 l -1.69523,0.0879 1.61293,0.28936 c 0.88711,0.15915 1.88874,0.5551 2.22584,0.8799 0.98246,0.9466 1.23273,0.68056 0.35485,-0.37722 z"
         style="fill:#000000"
         inkscape:connector-curvature="0" />
      <path
         id="path6885"
         d="m 197.6503,171.96844 c -0.61685,-0.16148 -1.77816,-0.16734 -2.58069,-0.013 -0.80254,0.15432 -0.29785,0.28645 1.12153,0.29361 1.41938,0.007 2.076,-0.11911 1.45916,-0.28059 z"
         style="fill:#000000"
         inkscape:connector-curvature="0" />
      <path
         style="fill:#000000"
         d="m 198.69979,214.22411 c -0.20641,-0.33398 -0.8596,-2.66261 -1.45154,-5.17473 -0.59194,-2.51212 -1.72803,-5.82802 -2.52466,-7.36866 -1.75499,-3.39407 -1.98467,-9.21611 -0.38775,-9.82891 1.86735,-0.71657 1.15894,-2.50684 -1.23744,-3.12725 -2.56914,-0.66513 -4.03945,-2.90334 -4.05544,-6.1735 -0.006,-1.17252 -0.93935,-4.0363 -2.07471,-6.36396 -2.66462,-5.46292 -4.24893,-9.72479 -5.25763,-14.14337 -0.62024,-2.71692 -1.56992,-4.28941 -4.05692,-6.71752 -3.20197,-3.12615 -6.51665,-9.38582 -7.45531,-14.07914 -0.27593,-1.37965 -1.36017,-2.94146 -2.8094,-4.04684 -1.64611,-1.25555 -2.49044,-2.58124 -2.79108,-4.38233 -0.62888,-3.76745 -3.06542,-11.10232 -5.43816,-16.37081 -1.13847,-2.5279 -2.84403,-6.63939 -3.79012,-9.13664 -0.94609,-2.49725 -1.9967,-4.88374 -2.33469,-5.3033 -0.89429,-1.11015 -5.01459,-11.007828 -5.01459,-12.045918 0,-0.48507 2.2849,-1.93512 5.07756,-3.22234 3.8536,-1.77624 6.36356,-2.42293 10.41248,-2.68278 l 5.33492,-0.34237 -2.10398,1.8297 c -2.07996,1.80881 -2.08999,1.85237 -0.87907,3.81553 0.67369,1.09221 1.68945,2.96576 2.25724,4.16344 1.69391,3.57311 2.71084,4.07094 5.73481,2.80744 1.44266,-0.60278 2.91816,-1.09596 3.27888,-1.09596 0.38351,0 0.45663,1.761 0.17609,4.24065 l -0.47978,4.240658 2.54328,1.06264 c 1.3988,0.58446 3.96795,1.06265 5.70922,1.06265 l 3.16595,0 0.25388,-3.35876 0.25388,-3.358748 0.98298,2.251568 c 1.00099,2.29279 2.39497,3.02483 5.79286,3.04207 2.80191,0.0142 3.10426,1.27117 0.86737,3.60598 l -1.98049,2.06719 2.39551,2.47155 c 2.63491,2.71853 5.11575,3.1775 7.1626,1.32512 1.9726,-1.78517 3.44078,-0.73896 3.44078,2.45186 0,1.59429 0.44887,3.13657 1.06066,3.64431 0.58336,0.48415 1.06535,0.60266 1.07108,0.26336 0.006,-0.33931 0.41145,0.17858 0.90158,1.15085 1.21415,2.40846 3.7497,2.63838 6.0586,0.54937 1.02753,-0.92967 3.09597,-2.58979 4.59655,-3.68917 2.19998,-1.6118 2.8483,-1.80942 3.34793,-1.02052 0.34078,0.53809 0.62449,1.19555 0.63044,1.46102 0.006,0.26547 0.70396,0.70267 1.55113,0.97155 1.40308,0.44533 1.29285,0.60824 -1.23744,1.82869 -3.58842,1.73083 -4.54551,3.08477 -4.54551,6.43031 0,2.82228 2.41332,6.19667 4.43176,6.19667 0.52828,0 1.89509,0.98662 3.03735,2.19248 1.14226,1.20587 2.79278,2.47079 3.66783,2.81093 0.87504,0.34014 1.59099,1.19191 1.59099,1.89282 0,2.00447 2.04952,4.41745 3.7524,4.41787 1.46,3.5e-4 1.55295,0.32155 1.58585,5.48007 0.0407,6.38617 0.86997,8.28219 4.23769,9.68931 2.86725,1.19801 3.85908,3.29645 3.85908,8.16476 0,1.89391 0.33002,4.31149 0.73338,5.37242 0.48816,1.28395 0.49731,2.16501 0.0274,2.63494 -1.58442,1.58443 -13.0425,5.42803 -16.20907,5.43732 -5.02533,0.0148 -6.41029,0.63287 -7.88208,3.5178 -1.23756,2.42583 -1.8142,2.77393 -7.14808,4.31518 -6.70955,1.93876 -8.81683,3.67499 -11.59953,9.55715 -1.69914,3.59168 -1.82532,4.4318 -1.37976,9.18661 0.46415,4.9532 0.41334,5.23341 -0.94905,5.23341 -0.7917,0 -1.91059,0.18079 -2.48642,0.40175 -0.57584,0.22097 -1.21585,0.12851 -1.42226,-0.20547 l 1e-5,0 z"
         id="path7767"
         inkscape:connector-curvature="0"
         sodipodi:nodetypes="csssscsssssssscssscsssssscsscccssscsssscsssscssssssssssssccssssssccc" />
    </g>
    <path
       style="fill:#000000"
       d="m 299.08695,433.37668 c -0.13607,-0.33602 -1.32544,-3.11588 -2.64305,-6.17745 -3.11867,-7.24644 -5.66835,-13.76796 -6.29082,-16.09054 -0.27336,-1.02 -0.70994,-2.13927 -0.97016,-2.48727 -0.26022,-0.34801 -0.79113,-1.04735 -1.17982,-1.55413 -1.34459,-1.75307 -2.96476,-7.92905 -4.51328,-17.20429 -1.05975,-6.34759 -1.73926,-11.43382 -1.73926,-13.01863 0,-2.21171 -0.70107,-5.57012 -2.10042,-10.06195 -1.90632,-6.11917 -2.53079,-8.51165 -3.54373,-13.57681 -1.18799,-5.94053 -2.25308,-9.48641 -3.69991,-12.31767 -0.63824,-1.24896 -1.16044,-2.4375 -1.16044,-2.64122 0,-0.20372 0.32152,-0.58704 0.7145,-0.85184 0.59135,-0.39847 1.3042,-0.48145 4.13614,-0.48145 l 3.42166,0 0.0854,-0.92561 c 0.10511,-1.13927 -0.56583,-3.02513 -1.47276,-4.13958 l -0.67947,-0.83493 1.13575,-2.31474 c 1.41914,-2.89232 1.84995,-4.35556 1.8512,-6.28759 10e-4,-1.93305 0.47755,-2.74879 2.82451,-4.83739 2.51461,-2.23779 3.93647,-3.20945 6.54882,-4.47523 2.98458,-1.44615 11.69278,-3.72966 18.98785,-4.97908 8.53261,-1.46139 10.24407,-2.1105 13.9255,-5.28166 1.66328,-1.43274 2.58989,-2.02297 3.66955,-2.33742 3.60695,-1.05057 3.66982,-1.09978 4.49092,-3.51532 0.84811,-2.49503 0.2643,-4.30029 -1.80385,-5.57783 -1.27927,-0.79025 -2.42446,-1.88857 -2.42446,-2.32523 0,-0.19083 0.24747,-0.4839 0.54992,-0.65127 0.79963,-0.44248 1.48031,-2.25007 2.35118,-6.24368 0.42298,-1.93959 1.0213,-4.04392 1.32963,-4.67628 0.66126,-1.35616 4.06851,-4.85884 6.66906,-6.85582 1.89348,-1.45402 2.4642,-1.80743 2.9301,-3.42191 l 0.31582,-1.09438 c 10.30112,-4.41262 3.33775,-6.79054 5.86165,-8.43868 1.58011,-1.03182 4.91272,1.80947 6.54083,0.83972 l 0.0654,6.59505 2.58655,1.44385 8.07081,-1.65573 1.81554,2.10357 c 1.0406,1.2057 2.57227,2.13897 3.65211,2.13897 0.40782,0 1.38349,0.42767 2.16816,0.95038 1.11604,0.74345 1.69644,0.95037 2.66582,0.95037 1.64571,0 2.52644,-0.37443 2.63196,-1.11897 0.0855,-0.60305 0.0885,-0.60258 0.87361,0.13643 0.67243,0.63297 0.70452,0.71785 0.21907,0.57949 -0.77839,-0.22185 -1.00108,0.27331 -0.40166,0.89309 0.36134,0.37363 1.17643,0.5901 3.05079,0.81025 2.09466,0.24603 2.7797,0.44757 3.78394,1.11325 1.2687,0.84098 2.96721,1.36982 4.4365,1.38134 0.68811,0.005 0.92813,0.17196 1.28112,0.88912 0.66728,1.35565 2.59189,3.5822 4.05897,4.69572 1.68335,1.27769 3.46469,1.84269 9.00492,2.85616 2.45432,0.44897 4.82632,1.00157 5.27113,1.22801 0.4448,0.22644 1.15654,0.86379 1.58163,1.41634 0.85899,1.11657 4.08405,4.11452 5.48533,5.09906 1.08591,0.76297 1.48885,1.83097 1.48885,3.94624 0,2.3816 -0.84407,4.43344 -2.53868,6.17126 -1.53844,1.57767 -2.30534,2.90223 -2.59059,4.47444 -0.23088,1.27253 -1.60935,2.54315 -3.7161,3.42536 -3.33751,1.39759 -6.6001,3.30914 -7.80852,4.57502 -0.67285,0.70482 -2.13481,2.66999 -3.24882,4.36703 l -2.02544,3.08554 -4.2018,-0.17445 c -6.4492,-0.26775 -7.89096,0.16997 -8.19152,2.48705 -0.19116,1.47364 0.43506,3.32231 2.06486,6.09568 1.83137,3.11638 3.10661,5.90107 3.10661,6.78379 0,0.49861 -0.2281,0.9016 -0.69597,1.22957 -1.25474,0.87955 -2.15097,1.98073 -2.33683,2.87116 -0.51188,2.45254 -1.38569,3.25918 -3.85916,3.56261 -2.10642,0.25838 -3.55089,1.23943 -6.20678,4.21548 -2.73367,3.06319 -3.6956,3.74687 -6.68774,4.75323 -2.73173,0.91877 -4.01155,1.69508 -4.47065,2.71183 -1.05101,2.3276 -1.26362,5.13398 -0.46608,6.15237 0.48393,0.61792 0.51218,0.62051 3.74223,0.34231 1.79005,-0.15418 3.38567,-0.23107 3.54585,-0.17089 0.17317,0.0651 0.27962,0.76133 0.26261,1.71787 -0.026,1.4622 0.0469,1.68666 0.80235,2.46885 0.49761,0.51522 1.51085,1.09697 2.52565,1.45009 l 1.69469,0.58969 -1.24503,0.59058 c -1.23461,0.58564 -2.43469,1.96265 -3.94166,4.52283 -0.92547,1.57227 -0.83265,3.2242 0.35493,6.31694 0.52922,1.37822 0.96222,2.69178 0.96222,2.91901 0,0.60529 -0.61486,0.51129 -2.62612,-0.40146 -3.10037,-1.40699 -4.44777,-1.03386 -8.8808,2.45938 -2.60236,2.05065 -4.34725,3.01985 -4.98282,2.76767 -0.21392,-0.0849 -0.99329,-0.57633 -1.73193,-1.09209 -1.2553,-0.87656 -1.44584,-0.92827 -2.91864,-0.79206 -1.88274,0.17412 -2.81545,-0.12867 -5.06207,-1.64332 -3.04525,-2.05307 -4.48623,-1.80319 -6.52847,1.13214 -0.65852,0.94651 -1.45171,1.84045 -1.76262,1.98654 -0.31092,0.14609 -1.54601,0.45806 -2.74465,0.69329 -2.4984,0.49028 -5.41123,1.88388 -6.17374,2.95374 -1.0784,1.51307 -0.83377,4.54029 0.49929,6.17837 1.37714,1.69225 1.59952,3.75133 0.52512,4.86223 -0.36901,0.38157 -0.49024,0.38128 -1.26673,-0.003 -0.47226,-0.23365 -1.80406,-1.24848 -2.95956,-2.25521 -3.45235,-3.00786 -5.9945,-3.89475 -9.97928,-3.48155 l -2.1009,0.21785 -0.18347,2.30805 c -0.10095,1.26944 -0.31363,3.95765 -0.47271,5.9738 -0.15908,2.01616 -0.47131,5.25127 -0.69382,7.18915 -0.30648,2.66905 -0.33494,3.75545 -0.11737,4.48035 0.16506,0.54991 1.24974,2.05415 2.55014,3.53653 2.74137,3.12499 4.30079,5.50629 4.30079,6.56748 0,0.78662 -0.0892,0.86254 -1.34504,1.14505 -0.37867,0.0851 -1.26499,0.5827 -1.96959,1.10558 -2.52608,1.87463 -3.14968,2.10255 -6.39739,2.33822 -3.3824,0.24546 -4.34619,0.53194 -7.15845,2.12784 -1.07312,0.60898 -2.03223,1.10724 -2.13133,1.10724 -0.099,0 -0.29151,-0.27492 -0.42758,-0.61096 z"
       id="path7723"
       inkscape:connector-curvature="0"
       sodipodi:nodetypes="cscsssssssscscsscscsssssssscsssscsccccsssscsccsscsssssssssssscsssscssssscscccscsssssscsssscsssccssccsscsscsssscc" />
    <path
       style="fill:#000000"
       d="m 271.59418,329.63639 c -0.25573,-0.18699 -0.38471,-0.62585 -0.53252,-1.81196 -0.10727,-0.86086 -0.16866,-1.59917 -0.13641,-1.6407 0.0323,-0.0415 0.28092,0.13747 0.5526,0.39775 0.47408,0.4542 0.91784,0.61935 0.91539,0.34067 -7.1e-4,-0.0729 -0.15921,-0.37123 -0.35239,-0.66292 -0.41443,-0.62577 -0.43866,-0.79549 -0.11359,-0.79549 0.33853,0 3.05127,-2.85955 4.07091,-4.29123 0.89536,-1.25717 1.52276,-2.65821 1.52276,-3.40045 0,-0.24203 -0.16833,-0.60838 -0.37407,-0.81412 -0.30511,-0.30511 -0.52781,-0.3593 -1.20795,-0.29395 -1.17336,0.11274 -1.96414,0.71867 -5.01411,3.84201 -1.44026,1.4749 -2.71302,2.65019 -2.82835,2.61174 -0.11533,-0.0384 -0.26429,-0.45164 -0.33103,-0.91822 -0.0681,-0.47617 -0.63065,-1.90442 -1.28228,-3.25567 -0.63851,-1.32403 -1.16067,-2.54376 -1.16036,-2.71051 10e-4,-0.55769 -0.55283,-1.97283 -1.85318,-4.73496 -1.72269,-3.65922 -2.27909,-5.45722 -3.00876,-9.72272 -0.7915,-4.62694 -1.40157,-6.63006 -2.23209,-7.32889 -1.01716,-0.85589 -1.65335,-0.34851 -0.84753,0.67593 0.62029,0.78857 0.0774,0.51487 -0.74162,-0.37391 l -0.77381,-0.83969 0.48613,-0.0559 c 0.62159,-0.0715 0.63988,-0.52971 0.0492,-1.23174 -0.58705,-0.69766 -0.80047,-1.31215 -0.80047,-2.30472 0,-1.10908 0.23852,-1.87671 0.7849,-2.52604 0.87056,-1.0346 0.48387,-2.03452 -1.04893,-2.71239 -0.76001,-0.33612 -0.95975,-0.51566 -1.05472,-0.94808 -0.0644,-0.29339 -0.54457,-1.16829 -1.06696,-1.94421 -1.24867,-1.8547 -1.97984,-3.32708 -2.32276,-4.6774 -0.39816,-1.5679 -1.04386,-3.03254 -1.96583,-4.45913 -2.63843,-4.08254 -6.14912,-6.99367 -9.02727,-7.48558 -1.40964,-0.24092 -2.0473,-0.63736 -3.40039,-2.11401 -1.94764,-2.12551 -4.20875,-6.25549 -5.80133,-10.5963 -0.94419,-2.57353 -0.94422,-3.11529 -1.8e-4,-4.67772 0.74534,-1.23358 1.0145,-2.3364 0.78927,-3.23381 -0.30294,-1.20699 -2.25016,-2.56334 -3.68001,-2.56334 -0.58504,0 -1.48078,0.4184 -1.60049,0.74758 -0.0885,0.24328 -0.16847,-0.19132 -0.46687,-2.53634 -0.4632,-3.63995 -2.47092,-9.63455 -4.8042,-14.34421 -0.77676,-1.56786 -1.38889,-3.01423 -1.36029,-3.21414 0.0891,-0.62261 1.34589,-0.4324 3.86775,0.58534 2.60331,1.0506 4.08682,1.43292 5.55342,1.43116 1.21976,-0.001 2.39578,-0.45589 2.80408,-1.08354 0.42295,-0.65018 0.52733,-2.09508 0.29083,-4.02574 -0.2715,-2.21633 -0.15702,-2.46099 1.35046,-2.88603 1.3061,-0.36826 2.77122,-1.23999 4.86787,-2.8963 2.00043,-1.5803 3.50466,-2.39349 5.33453,-2.88386 2.3229,-0.62249 4.29629,-1.85764 5.35248,-3.35013 l 0.50584,-0.7148 1.93506,-1.94601 c 2.08113,0.64734 0.91116,1.75038 6.24338,1.94201 2.2981,-0.0884 2.94901,-3.7144 4.36322,-3.44924 0.97228,-0.0884 3.28488,1.41231 3.55004,2.91491 l -0.21641,1.25804 c -0.11057,0.64276 -0.49813,1.00161 -0.54709,1.81197 -0.059,0.97577 -0.0105,1.16658 0.48465,1.90721 0.62185,0.93019 1.307,1.51613 3.74496,3.20268 2.35652,1.63021 3.46053,2.68758 4.84418,4.63955 2.06331,2.9108 3.12604,3.61248 5.47328,3.61383 1.78396,0.001 3.26899,-0.31263 5.37337,-1.13494 1.00907,-0.3943 1.72166,-0.58423 1.82062,-0.48527 0.099,0.099 0.004,0.74328 -0.24382,1.64619 -0.35144,1.28285 -0.40461,1.87822 -0.39299,4.40039 0.0123,2.66614 0.06,3.09359 0.55577,4.97373 0.96486,3.65941 3.20628,8.35005 4.47763,9.37037 0.38604,0.30981 1.31488,0.69064 2.55155,1.04612 4.17925,1.20135 5.12254,2.11013 6.45062,6.21458 1.16164,3.59005 2.09098,4.63446 4.98614,5.60345 2.05484,0.68776 3.71446,1.60894 5.5338,3.07158 1.78486,1.43492 2.71829,1.90905 3.98441,2.02386 1.30588,0.11841 2.42287,-0.25327 4.15055,-1.38111 2.17713,-1.42125 3.87537,-1.93748 5.20016,-1.58075 1.17204,0.3156 1.31821,0.7076 1.34522,3.60753 0.028,3.00336 0.22568,3.61139 1.57265,4.83635 0.50801,0.462 1.87166,1.43541 3.03033,2.16313 1.15866,0.72772 2.454,1.66958 2.87852,2.09302 0.68258,0.68085 0.76063,0.83904 0.67483,1.36773 -0.13807,0.85086 -0.82843,1.75161 -3.64976,4.76206 -1.36679,1.45841 -2.51804,2.81075 -2.55835,3.0052 -0.0403,0.19446 -0.2399,1.28834 -0.44354,2.43086 -0.47881,2.68632 -1.42945,5.57115 -2.32402,7.0525 -1.01068,1.67364 -1.14318,2.2638 -0.72201,3.21592 0.26182,0.5919 0.61678,0.95202 1.55509,1.57772 1.53875,1.02609 1.99146,1.4538 2.2867,2.16042 0.47678,1.14109 -0.27907,2.22969 -1.86146,2.68092 -1.41168,0.40255 -3.14697,1.35416 -4.49109,2.46284 -0.64387,0.5311 -1.17067,0.89407 -1.17067,0.80661 0,-0.0875 0.11932,-0.25805 0.26516,-0.37909 0.29328,-0.2434 0.35197,-0.53033 0.10848,-0.53033 -0.28099,0 -2.00828,1.73091 -1.90081,1.90479 0.18098,0.29284 -2.97052,1.61681 -5.14099,2.15978 -1.14526,0.28649 -3.35508,0.68518 -4.91072,0.88598 -1.55563,0.20079 -3.86257,0.56929 -5.12652,0.81889 -2.4486,0.48354 -11.26481,2.93138 -13.25295,3.67972 -1.4689,0.55289 -3.63436,1.82679 -5.04355,2.96702 -0.5833,0.47197 -1.06055,0.79087 -1.06055,0.70868 0,-0.0822 0.0885,-0.23795 0.19667,-0.34611 0.10816,-0.10817 0.15745,-0.30306 0.10953,-0.43311 -0.11973,-0.32488 -2.42752,2.02745 -2.42752,2.47437 0,0.18817 -0.19804,0.47189 -0.44009,0.63049 -0.24206,0.1586 -0.75897,0.69176 -1.1487,1.1848 l -0.7086,0.89645 0.008,1.97331 c 0.0114,2.81646 -0.69004,4.82403 -2.55013,7.2985 -0.9349,1.24369 -1.66482,1.84578 -2.97996,2.45806 -1.05015,0.4889 -1.8525,0.55381 -2.3499,0.1901 l 0,0 z m 6.84966,-7.69761 c -0.0169,-0.5952 -0.15176,-0.89446 -0.40301,-0.89446 -0.18944,0 -0.22991,1.4685 -0.0455,1.65286 0.21461,0.21461 0.46423,-0.20744 0.44856,-0.7584 z m 49.97553,-45.39799 c 1.78094,-1.78462 2.44465,-2.62147 2.24078,-2.82533 -0.14279,-0.1428 -4.34885,4.06308 -4.34885,4.34866 0,0.45591 0.47658,0.11152 2.10807,-1.52333 z"
       id="path7794"
       inkscape:connector-curvature="0"
       sodipodi:nodetypes="cscccsssssssccscssssccccssccssssssssscsscscsssssscccccsccsscsscscsssssssssssscscsssssssscscssssssccscscsssccccscccscss" />
    <path
       style="fill:#000000"
       d="m 230.28692,214.19505 c -1.36607,-0.28267 -10.38748,-1.22647 -11.72323,-1.22647 -0.68457,0 -1.24983,-0.29304 -1.89266,-0.98118 -0.50409,-0.53965 -0.91655,-1.06035 -0.91655,-1.15711 0,-0.0968 -0.83091,-1.18351 -1.84645,-2.41499 -2.65213,-3.21606 -2.65658,-3.22841 -2.08114,-5.7766 0.607,-2.6878 0.29527,-3.88664 -1.01055,-3.88664 -0.46573,0 -1.31275,0.35542 -1.88228,0.78981 -1.26498,0.96485 -1.3243,0.96808 -1.45057,0.079 -0.088,-0.61947 -0.31453,-0.72312 -1.76265,-0.80642 -1.65779,-0.0955 -1.66362,-0.0995 -2.4855,-1.73757 -0.45308,-0.9031 -1.70866,-2.56606 -2.79016,-3.69547 -1.58339,-1.65359 -2.1038,-2.46776 -2.6722,-4.18057 -0.38822,-1.16989 -0.94709,-2.42499 -1.24194,-2.78911 -0.89273,-1.10247 -6.45,-2.09892 -6.74642,-1.20968 -0.0731,0.21931 -0.27487,0.16017 -0.5389,-0.15796 -0.35842,-0.43187 -0.34478,-0.50852 0.0905,-0.50852 1.1653,0 0.58083,-0.94492 -3.98932,-6.44967 -1.8679,-2.24988 -3.39617,-4.20904 -3.39617,-4.3537 0,-0.14467 0.81745,0.1492 1.81655,0.65303 2.51611,1.26882 5.86008,2.25227 7.65829,2.25227 0.83063,0 1.91742,0.21237 2.41512,0.47194 1.06602,0.55597 1.82337,0.59829 2.66325,0.14879 1.26908,-0.67919 0.48558,-2.61194 -1.90446,-4.6979 l -1.30107,-1.13555 1.73647,-2.29284 c 1.64147,-2.16739 2.3988,-4.04423 1.93484,-4.79492 -0.11437,-0.18503 -0.58436,-0.33641 -1.04448,-0.33641 -1.23687,0 -4.45412,3.42315 -5.73022,6.09697 -0.55569,1.16436 -1.10971,2.11249 -1.23115,2.10697 -0.12145,-0.005 -0.49678,-0.21878 -0.83405,-0.47389 -0.33729,-0.25512 -0.99124,-0.46384 -1.45323,-0.46384 -0.834,0 -2.88229,-1.27803 -3.7644,-2.34881 -0.2531,-0.30724 -1.18565,-1.02268 -2.07231,-1.58987 -1.31064,-0.83841 -1.79543,-1.41501 -2.59235,-3.08335 -0.67635,-1.41592 -1.64733,-2.69665 -3.13219,-4.13129 -1.18358,-1.14357 -2.06195,-2.16923 -1.95194,-2.27924 0.10994,-0.11006 1.5573,0.30833 3.2162,0.92967 1.65888,0.62133 3.29653,1.12968 3.63924,1.12968 0.92629,0 1.61597,-0.86026 1.61597,-2.01568 0,-1.28571 -0.53916,-2.03668 -1.68157,-2.34221 l -0.89101,-0.23829 0.65721,-0.83552 c 0.36148,-0.45952 0.74422,-1.27052 0.85057,-1.80221 0.16984,-0.84924 0.0848,-1.00795 -0.69943,-1.30613 -1.21305,-0.4612 -2.96814,-0.11449 -5.05369,0.99847 -0.95755,0.51098 -2.48085,1.06795 -3.3851,1.23771 -0.90425,0.16976 -2.05186,0.60805 -2.55028,0.97394 -0.95415,0.70051 -0.97452,0.69201 -1.80085,-0.75159 -0.17403,-0.30408 -0.49352,-0.55287 -0.70996,-0.55287 -0.21642,0 -0.55448,-0.42649 -0.75123,-0.94776 -0.27666,-0.73295 -0.55243,-0.94777 -1.21668,-0.94777 -1.21013,0 -2.92808,1.88948 -3.18633,3.50446 -0.10981,0.68661 -0.3151,1.31975 -0.45624,1.40699 -0.43007,0.26579 -1.78872,-2.389 -2.67521,-5.22737 -0.46127,-1.47694 -1.25114,-3.99015 -1.75523,-5.5849 -0.50411,-1.59476 -0.91655,-2.96041 -0.91655,-3.03479 0,-0.0744 0.70458,0.003 1.56575,0.17436 1.98635,0.39274 2.45397,0.20145 3.06138,-1.25228 0.49004,-1.17283 0.45973,-5.14275 -0.0749,-9.80439 -0.17041,-1.48612 -0.0609,-1.91793 1.08801,-4.29169 2.00379,-4.13983 4.81642,-6.8508 7.10771,-6.8508 1.19598,0 7.85307,-2.23185 8.53265,-2.86064 0.32324,-0.29908 1.11517,-1.51931 1.75986,-2.71162 l 1.17213,-2.16784 4.08472,-0.19531 c 4.5482,-0.21747 4.53148,-0.21334 9.61336,-2.36803 l 3.63311,-1.5404 4.00599,0.0848 4.00596,0.0848 1.40887,-1.42908 c 0.77489,-0.78601 1.57607,-1.4291 1.7804,-1.4291 0.74343,0 1.79712,0.7583 4.00839,2.88465 1.47586,1.41918 2.51438,2.17179 3.00126,2.17494 0.55744,0.003 0.63301,0.0754 0.30072,0.2858 -0.49932,0.31611 -0.54974,0.20642 3.57064,7.7654 1.32602,2.4326 2.8012,4.78132 3.2782,5.2194 0.47698,0.43806 0.82204,1.03112 0.76682,1.3179 -0.0562,0.29217 0.51756,1.12274 1.30497,1.88887 4.05237,3.94285 4.1197,3.98307 8.89889,5.31708 4.56669,1.27469 7.38359,3.17425 8.81661,5.9454 1.17439,2.271 3.71296,3.37996 5.55579,2.427 0.56235,-0.2908 1.14141,-0.40978 1.28679,-0.26439 0.14539,0.14539 0.87852,1.75684 1.62918,3.58103 l 1.36483,3.31667 2.04661,-0.0141 c 1.12567,-0.008 4.53447,-0.12889 7.57528,-0.26905 6.99592,-0.32246 6.71904,-0.47515 6.9752,3.84668 0.14393,2.42857 0.3393,3.3905 0.85943,4.23211 0.37026,0.59906 0.96407,2.33669 1.31954,3.86143 0.78627,3.37177 0.94966,3.68966 2.89688,5.63689 1.24702,1.24709 1.67806,1.50028 2.24672,1.31979 0.61745,-0.19595 0.65232,-0.16148 0.28471,0.2814 -0.36154,0.43564 -0.21419,0.7236 1.0773,2.10422 1.74453,1.86504 3.1495,2.37213 7.48155,2.70025 l 2.76433,0.20936 0,2.6882 c 0,2.57951 0.0379,2.72398 0.94776,3.57354 0.52127,0.48694 0.94777,0.96364 0.94777,1.05934 0,0.0957 -0.67532,0.62711 -1.50063,1.1809 -2.21235,1.48443 -2.35919,1.74771 -2.12413,3.80597 0.13154,1.15137 0.0821,1.85622 -0.13939,1.99318 -0.18855,0.1165 -0.34285,0.77215 -0.34285,1.45693 0,1.213 -0.0291,1.24504 -1.10914,1.24504 -0.60998,0 -2.38041,-0.2832 -3.93436,-0.62935 -6.89735,-1.53634 -13.77751,-2.05476 -15.03615,-1.13299 -0.54201,0.39691 -0.61403,0.85346 -0.61972,3.92546 0,3.42916 -0.019,3.48578 -0.89242,4.17324 -0.48728,0.3833 -1.01107,1.02601 -1.16398,1.42825 -0.19865,0.52252 -0.62034,0.78914 -1.47701,0.93386 -2.17505,0.3674 -2.29308,0.45302 -2.66587,1.93341 -0.19752,0.78485 -0.56765,1.50696 -0.82241,1.60471 -0.45847,0.17592 -1.89946,-0.47923 -4.3451,-1.97542 -1.37895,-0.84361 -2.75235,-1.00914 -3.2241,-0.38859 -0.16511,0.2172 -0.56017,1.10573 -0.8779,1.97451 -0.67942,1.85774 -2.79555,4.13035 -4.12743,4.43264 -2.75581,0.62548 -3.41571,0.91661 -5.18288,2.28657 -2.77369,2.15022 -5.09402,3.54828 -5.88896,3.54828 -1.11539,0 -2.10669,1.03557 -2.31148,2.41465 -0.18435,1.24163 -0.19511,1.25017 -1.29164,1.02328 z"
       id="path7866"
       inkscape:connector-curvature="0" />
  </g>
</svg>
